<?xml version="1.0" encoding="UTF-8" standalone="no"?>
<svg
   xmlns:dc="http://purl.org/dc/elements/1.1/"
   xmlns:cc="http://creativecommons.org/ns#"
   xmlns:rdf="http://www.w3.org/1999/02/22-rdf-syntax-ns#"
   xmlns:svg="http://www.w3.org/2000/svg"
   xmlns="http://www.w3.org/2000/svg"
   id="svg8"
   version="1.1"
   viewBox="0 0 132.29166 30.982083"
   height="117.09763"
   width="500">
  <defs
     id="defs2" />
  <metadata
     id="metadata5">
    <rdf:RDF>
      <cc:Work
         rdf:about="">
        <dc:format>image/svg+xml</dc:format>
        <dc:type
           rdf:resource="http://purl.org/dc/dcmitype/StillImage" />
        <dc:title></dc:title>
      </cc:Work>
    </rdf:RDF>
  </metadata>
  <g
     transform="translate(3.5284758e-6,-266.01791)"
     id="layer1">
    <g
       id="text817"
       style="font-style:normal;font-variant:normal;font-weight:normal;font-stretch:normal;font-size:33.17139435px;line-height:125%;font-family:Roboto;-inkscape-font-specification:Roboto;text-align:center;letter-spacing:0px;word-spacing:0px;writing-mode:lr-tb;text-anchor:middle;fill:#404040;fill-opacity:1;stroke:none;stroke-width:0.26458329px;stroke-linecap:butt;stroke-linejoin:miter;stroke-opacity:1"
       aria-label="AoEII">
      <path
         id="path859"
         style="font-style:normal;font-variant:normal;font-weight:normal;font-stretch:normal;font-family:JFRockOutcrop;-inkscape-font-specification:JFRockOutcrop;fill:#404040;stroke-width:0.26458329px"
         d="m 16.419837,286.05343 q 0.06634,0.16586 0.09951,0.4644 0.06634,0.29854 0.2322,0.39805 v -0.0995 q 0,-0.36488 -0.132686,-0.76294 -0.09951,-0.43123 -0.199028,-0.72977 v -0.39806 q 0,-0.0995 0.132685,-0.0995 0.165857,0 0.199029,0 0.298542,0 0.563913,0.0995 0.265371,0.0663 0.530743,0.13269 v -0.0332 q 0,-0.0995 -0.132686,-0.16586 l -0.862456,-0.39806 q -0.398057,-0.19903 -0.563914,-0.49757 -0.165857,-0.29854 -0.2322,-0.63026 -0.03317,-0.36488 -0.06634,-0.72977 -0.03317,-0.39805 -0.165857,-0.6966 -0.165857,-0.43122 -0.4644,-0.72977 -0.298542,-0.33171 -0.298542,-0.79611 0,-0.26537 0.06634,-0.4644 0.09951,-0.2322 0.09951,-0.49757 0,-0.29854 -0.132685,-0.49757 -0.132686,-0.2322 -0.331714,-0.43123 -0.165857,-0.19903 -0.298543,-0.39806 -0.132685,-0.19902 -0.132685,-0.4644 0,-0.0995 0,-0.19902 0.03317,-0.13269 0.03317,-0.2322 0,-0.16586 -0.09951,-0.26538 -0.09951,-0.13268 -0.09951,-0.23219 0,-0.29855 0.165857,-0.49758 0.165857,-0.19902 0.398057,-0.33171 0.232199,-0.13269 0.49757,-0.19903 0.265372,-0.0663 0.4644,-0.13268 l -0.03317,-0.0663 q 0,-0.0332 -0.132686,-0.0332 -0.132686,-0.0332 -0.298543,-0.0332 -0.132685,-0.0332 -0.265371,-0.0663 -0.132685,-0.0332 -0.132685,-0.0995 0,-0.2322 0.09951,-0.53074 h -0.03317 q -0.06634,0 -0.165857,0.19903 -0.06634,0.16586 -0.199029,0.43123 -0.09951,0.2322 -0.2322,0.4644 -0.132685,0.19903 -0.232199,0.29854 -0.331714,0.26537 -0.497571,0.29854 -0.132686,0.0332 -0.265371,0.0995 -0.09952,0.0332 -0.265372,0.2322 -0.132685,0.16585 -0.464399,0.72977 -0.132686,0.16585 -0.331714,0.26537 -0.165857,0.0995 -0.2322,0.33171 v 0.19903 q 0,0.26537 0.03317,0.43123 0.03317,0.13268 0.165857,0.39806 v 0.0995 q 0,0.26537 -0.165857,0.4644 -0.132686,0.19903 -0.331714,0.43123 -0.165857,0.19903 -0.331714,0.43123 -0.132686,0.19902 -0.132686,0.46439 0,0.2322 0.132686,0.39806 0.132685,0.16586 0.132685,0.43123 0,0.26537 -0.199028,0.4644 -0.199028,0.19903 -0.199028,0.43123 v 0.0332 q 0,0.0332 0.03317,0.16586 0.03317,0.0995 0.03317,0.13268 v 0.0332 q 0,0.0663 -0.199028,0.2322 -0.199028,0.13269 -0.4644,0.26537 -0.265371,0.13269 -0.5307418,0.26537 -0.2321998,0.0995 -0.331714,0.13269 H 9.3875011 q -0.3648854,0 -0.8624563,0.0663 -0.4643995,0.0663 -0.4643995,0.33172 0,0.13268 0.099514,0.16585 0.1326856,0.0332 0.1990283,0.0332 h 0.1326856 q 0.2653712,-0.13269 0.6634279,-0.33172 0.4312281,-0.19903 0.7629421,-0.19903 0.2985426,0 0.3317136,0.2322 v 0.39806 q 0,0.29854 -0.03317,0.59708 -0.03317,0.29855 -0.03317,0.63026 v 0.16586 l 0.398056,-1.89077 q 0,-0.0332 0,-0.0332 0.03317,-0.0332 0.03317,-0.0663 0.09951,-0.13268 0.298542,-0.2322 0.2322,-0.0995 0.431228,-0.19902 0.2322,-0.0995 0.431228,-0.16586 0.199029,-0.0663 0.298543,-0.13269 0.165857,-0.13268 0.265371,-0.29854 0.09951,-0.19903 0.199029,-0.33171 0.132685,-0.16586 0.265371,-0.26537 0.165857,-0.0995 0.398056,-0.0995 1.127828,0 1.957113,0.39806 0.829285,0.36488 0.995142,1.49271 0.03317,0.0995 0.06634,0.36489 0.03317,0.26537 0.06634,0.56391 0.06634,0.26537 0.09951,0.53074 0.03317,0.26537 0.03317,0.36489 z m 1.19417,7.16502 q 0,-0.2322 0,-0.4644 0.03317,-0.2322 0.03317,-0.4644 v -0.36488 q -0.06634,-0.36489 -0.331714,-0.39806 -0.232199,-0.0332 -0.563913,-0.0332 -0.265372,-0.33172 -0.530743,-0.4644 -0.232199,-0.13269 -0.663428,-0.13269 -0.464399,0 -0.928799,0.0995 -0.431228,0.0663 -0.895627,0.0663 -0.663428,0 -1.326856,-0.16586 -0.663428,-0.19903 -1.326856,-0.19903 -0.165857,0 -0.364885,0.0663 -0.165857,0.0663 -0.364885,0.0663 h -0.132686 q -0.132686,-0.0332 -0.199028,-0.19903 -0.066343,-0.16586 -0.132686,-0.36488 -0.033171,-0.19903 -0.1326856,-0.36489 -0.066343,-0.19903 -0.2321998,-0.29854 -0.3980567,-0.2322 -0.6302564,-0.43123 -0.2321998,-0.2322 -0.331714,-0.49757 -0.099514,-0.29854 -0.099514,-0.63026 0,-0.33171 0,-0.82928 l -0.033171,0.0663 q -0.1658569,0.29854 -0.2653711,0.72977 -0.066343,0.39806 -0.066343,0.72977 0,0.0663 0,0.16586 0.033171,0.0663 0.033171,0.0995 0.1990284,0.49757 0.4312281,0.63026 0.2653712,0.0995 0.4975709,0.19903 0.2321998,0.0995 0.3980568,0.36488 0.1990283,0.2322 0.2985425,0.96197 0.033171,0.13269 0.099514,0.26537 0.066343,0.0995 0.066343,0.19903 0,0.53074 -0.2321998,0.99514 -0.1990283,0.4644 -0.5639137,0.79612 -0.3317139,0.33171 -0.7961134,0.53074 -0.4312282,0.16586 -0.8956277,0.16586 -0.3980567,0 -0.7961135,-0.0995 -0.3980567,-0.13268 -0.7961134,-0.2322 h -0.331714 q -0.3648853,0 -0.5307423,0.0332 -0.1326856,0.0332 -0.4975709,0.16586 -0.5639137,0 -1.094656,0.0332 -0.4975709,0.0332 -1.0614846,0.0332 -0.7961135,0 -1.2273416,-0.4644 -0.43122814,-0.46439 -0.43122814,-1.22734 0,-0.56391 0.13268558,-1.09465 0.13268557,-0.53075 0.39805676,-0.99514 0.1990283,-0.36489 0.5307423,-0.63026 0.3648853,-0.29854 0.3648853,-0.72977 0,-0.29854 -0.099514,-0.53074 -0.099514,-0.26538 -0.1990283,-0.72977 0,-0.0332 0.033171,-0.26538 0.066343,-0.2322 0.099514,-0.49757 0.066343,-0.26537 0.1326856,-0.53074 0.066343,-0.26537 0.099514,-0.43123 0.033171,-0.13268 0.1326856,-0.4644 0.099514,-0.36488 0.2321997,-0.72977 0.1326856,-0.36488 0.2321998,-0.6966 0.099514,-0.33171 0.165857,-0.4644 l 0.6965993,-3.78154 q 0.2985425,-0.33171 0.6634278,-0.72977 0.3648854,-0.39805 0.3648854,-0.86245 0,-0.33172 -0.099514,-0.63026 -0.066343,-0.29854 -0.033171,-0.63026 0.033171,-0.0995 0.066343,-0.29854 0.066343,-0.2322 0.099514,-0.49757 0.066343,-0.26537 0.099514,-0.49757 0.066343,-0.2322 0.066343,-0.33171 0,-0.0332 0.165857,-0.4644 0.165857,-0.43123 0.3980568,-0.9288 0.2321997,-0.49757 0.4643995,-0.89563 0.2321997,-0.43123 0.3980567,-0.43123 0.066343,0 0.099514,0.0995 0.033171,0.0995 0.066343,0.13268 0.2653711,0.6966 0.3980567,1.06149 0.1326856,0.36488 0.1990284,0.53074 0.066343,0.13268 0.066343,0.13268 0,0 0,0 0,0 -0.033171,-0.39805 -0.033171,-0.43123 -0.099514,-0.9288 -0.033171,-0.49757 -0.1326856,-0.89563 -0.099514,-0.39806 -0.2321998,-0.39806 H 6.5679326 L 6.26939,272.22096 q -0.099514,-0.0332 -0.1326856,-0.36489 0,-0.33171 0,-0.4644 0,-0.56391 0.2321998,-1.26051 0.2653711,-0.72977 0.3980567,-1.09466 0.2653712,-0.86245 0.9287991,-1.29368 0.6634278,-0.4644 1.5258841,-0.4644 0.3980567,0 0.7297707,0.29854 0.3317142,0.26537 0.7961132,0.26537 0.331714,0 0.563914,-0.13268 0.265371,-0.16586 0.497571,-0.36489 0.165857,0 0.597085,-0.0332 0.431228,-0.0332 0.928799,-0.0332 0.497571,-0.0332 0.928799,-0.0663 0.431228,-0.0332 0.597085,-0.0332 h 0.06634 q 0.09951,0 0.265371,0.2322 0.199028,0.19903 0.199028,0.29855 0,0.59708 -0.232199,1.161 -0.2322,0.53074 -0.2322,1.12782 v 0.29855 q 0.298542,-0.13269 0.265371,-0.29855 -0.03317,-0.19902 -0.03317,-0.39805 0,-0.19903 0.165857,-0.36489 0.165857,-0.19903 0.862456,-0.36488 0.132685,0 0.132685,-0.0663 v -0.0332 q -0.265371,-0.0663 -0.49757,-0.16586 -0.199029,-0.13268 -0.199029,-0.43122 0,-0.16586 0.09951,-0.53075 0.09952,-0.36488 0.298543,-0.36488 h 0.09951 q 0.09951,0 0.364885,0.0332 0.265372,0 0.530743,0 0.298542,0 0.563913,0.0332 0.265372,0 0.364886,0 0.132685,0.0663 0.2322,0.16586 0.132685,0.0663 0.132685,0.19903 v 0.0663 q -0.03317,0.0663 -0.09951,0.2322 -0.03317,0.16586 -0.03317,0.19903 0,0.0995 0.165857,0.0995 0.132685,0 0.199028,-0.13268 0.09951,-0.13269 0.132685,-0.26537 0.06634,-0.16586 0.132686,-0.29855 0.09951,-0.13268 0.298543,-0.13268 0.298542,0 0.364885,0.13268 0.06634,0.13269 0.06634,0.29855 0,0.16585 -0.03317,0.36488 0,0.16586 0.165857,0.26537 0.09952,0.0663 0.265371,0.0995 0.199029,0 0.398057,0 0.199029,0 0.331714,0.0332 0.165857,0.0332 0.199029,0.13268 l 0.431228,1.29369 q 0.232199,1.09465 0.364885,1.72491 0.132686,0.63026 0.165857,0.9288 0.06634,0.29854 0.06634,0.39806 0.03317,0.0663 0.03317,0.0995 0,0.86246 -0.03317,1.72491 0,0.86246 -0.298543,1.69174 -0.199028,0.56392 -0.563914,1.12783 -0.364885,0.56391 -0.364885,1.19417 v 0.0332 l 0.06634,-0.0663 q 0.2322,-0.2322 0.464399,-0.59709 0.2322,-0.36488 0.398057,-0.76294 0.199029,-0.43123 0.298543,-0.82928 0.132685,-0.43123 0.132685,-0.76294 0,-0.19903 -0.03317,-0.39806 0,-0.19903 0,-0.39806 0,-0.2322 0,-0.36488 0.03317,-0.16586 0.165857,-0.36489 h 0.03317 q 0.06634,0 0.199029,0.33172 0.132685,0.29854 0.232199,0.69659 0.132686,0.39806 0.2322,0.76295 0.132686,0.33171 0.132686,0.36488 0,0.0995 0.03317,0.29854 0.03317,0.19903 0.06634,0.4644 0.03317,0.2322 0.06634,0.43123 0.03317,0.19903 0.03317,0.29855 0,0 0,0.0332 0.03317,0.0332 0.03317,0.0663 0,0.16586 -0.09952,0.33171 -0.09951,0.13269 -0.09951,0.36489 0,0.4644 0.2322,0.96197 0.265371,0.4644 0.464399,0.86246 l 0.497571,1.99028 v 0.0663 q 0,0.2322 -0.03317,0.43123 -0.03317,0.19903 -0.03317,0.43123 0,0.63025 0.132685,1.29368 0.132686,0.63026 0.497571,1.12783 0.06634,0.13269 0.265371,0.19903 0.199029,0.0332 0.265371,0.16586 0.03317,0.0995 0.09952,0.43122 0.06634,0.29855 0.132685,0.66343 0.06634,0.33171 0.132686,0.63026 0.06634,0.29854 0.09951,0.43123 0.03317,0.0995 0.132685,0.43122 0.09952,0.33172 0.132686,0.53075 -0.165857,0.2322 -0.364885,0.4644 -0.199029,0.2322 -0.199029,0.53074 0,0.33171 0.165857,0.39805 0.165857,0.0663 0.364886,0.13269 0.199028,0.0332 0.364885,0.16586 0.165857,0.13268 0.165857,0.53074 0,1.22734 -0.696599,1.75808 -0.663428,0.49757 -1.824427,0.49757 h -0.663428 q -0.165857,-0.0663 -0.464399,-0.19902 -0.265372,-0.13269 -0.331714,-0.19903 h -0.06634 q -0.132686,0 -0.2322,0.0995 -0.09951,0.0663 -0.199028,0.16586 -0.09951,0.0663 -0.265371,0.16586 -0.132686,0.0663 -0.398057,0.0663 h -0.298543 q -0.232199,0 -0.796113,0.0332 -0.563914,0 -1.160999,-0.0332 -0.597085,-0.0663 -1.061485,-0.26537 -0.464399,-0.19903 -0.464399,-0.66343 z m -0.663428,0 q 0,0.49757 0.199028,0.79611 0.2322,0.29855 0.597085,0.4644 l 1.293685,1.29369 q 0.398057,0.39805 1.094656,0.49757 0.696599,0.0995 1.393198,0.0995 h 1.525885 q 0.464399,0 0.696599,-0.13268 0.2322,-0.13269 0.398057,-0.29855 v -0.0332 q 0.165857,0.0995 0.364885,0.19903 0.2322,0.0995 0.331714,0.16586 h 0.829285 q 1.393198,0 2.222483,-0.66343 0.862456,-0.63026 0.862456,-2.15614 0.06634,-0.36489 -0.199028,-0.6966 -0.265371,-0.33171 -0.729771,-0.79611 0.132686,-0.0995 0.2322,-0.29855 0.132686,-0.19902 0.2322,-0.36488 -0.165857,-0.63026 -0.364885,-1.52589 -0.199029,-0.89562 -0.364886,-1.59222 -0.132685,-0.39806 -0.199028,-0.56392 -0.06634,-0.16585 -0.132686,-0.2322 l -0.696599,-0.6966 q -0.165857,-0.56391 -0.165857,-1.09465 0,-0.56391 0.06634,-1.12783 v -0.0663 l -0.530743,-2.12297 q -0.06634,-0.16586 -0.132685,-0.26537 -0.03317,-0.0995 -0.09951,-0.19903 l 0.03317,0.0332 q -0.165857,-0.29854 -0.331714,-0.63026 -0.132685,-0.36488 -0.132685,-0.63025 0,-0.13269 0.09951,-0.39806 0.09951,-0.26537 0.09951,-0.29854 -0.09951,-1.06149 -0.398057,-2.0898 -0.265371,-1.02831 -0.895627,-2.02345 v -0.86246 q 0,-0.0332 -0.03317,-0.13269 0,-0.0995 -0.06634,-0.39805 -0.03317,-0.29855 -0.165857,-0.89563 -0.09951,-0.59709 -0.331714,-1.65857 l -0.49757,-1.45954 h 0.03317 q -0.06634,-0.2322 -0.199028,-0.39806 l -1.42637,-1.3932 q -0.09952,-0.29854 -0.298543,-0.39805 -0.165857,-0.13269 -0.431228,-0.16586 l -0.597085,-0.63026 q -0.06634,-0.2322 -0.298543,-0.39805 -0.232199,-0.16586 -0.72977,-0.16586 -0.298543,0 -0.563914,0.13269 -0.132686,-0.0663 -0.265371,-0.13269 -0.09951,-0.0663 -0.199029,-0.13269 -0.132685,0 -0.431228,0 -0.298542,0 -0.597085,-0.0332 -0.199028,0 -0.431228,0 -0.199028,-0.0332 -0.597085,-0.0332 -0.265371,0 -0.530742,0.26537 -0.165857,-0.16585 -0.331714,-0.26537 -0.132686,-0.0995 -0.2322,-0.0995 -0.563914,0.0663 -1.625398,0.0995 -0.497571,0.0332 -1.061485,0.0663 -0.530742,0 -0.696599,0 -0.2322,0.19903 -0.431228,0.36489 -0.199029,0.13268 -0.364886,0.13268 -0.364885,-0.16585 -0.72977,-0.36488 -0.3317144,-0.19903 -0.7961139,-0.19903 -1.1278274,0 -1.9571123,0.56391 -0.7961134,0.56392 -1.1278274,1.65857 -0.2321997,0.56392 -0.4312281,1.22735 -0.1990284,0.63025 -0.2321998,1.32685 0,0.13269 0,0.39806 0.033171,0.26537 0.1990284,0.53074 -0.2653711,0.33171 -0.5307423,0.79611 -0.2653712,0.4644 -0.4975709,0.9288 -0.1990284,0.43123 -0.331714,0.76295 -0.1326855,0.33171 -0.1326855,0.36488 0,0.0995 -0.066343,0.36489 -0.033171,0.2322 -0.099514,0.49757 -0.033171,0.26537 -0.099514,0.49757 -0.033171,0.2322 -0.066343,0.33171 0,0.53074 0.033171,0.76294 0.066343,0.19903 0.099514,0.56392 0,0.26537 -0.9951418,1.29368 l -0.7297707,3.88106 q -0.033171,0.13268 -0.1326856,0.46439 -0.099514,0.33172 -0.2321998,0.72978 -0.1326855,0.36488 -0.2321997,0.72977 -0.099514,0.33171 -0.1326856,0.4644 -0.033171,0.16585 -0.099514,0.4644 -0.066343,0.29854 -0.1326855,0.63025 -0.066343,0.29854 -0.1326856,0.56392 -0.033171,0.2322 -0.033171,0.33171 0.066343,0.33171 0.165857,0.63026 0.099514,0.26537 0.1326855,0.53074 -0.066343,0.2322 -0.3648853,0.53074 -0.29854256,0.26537 -0.43122814,0.49757 l -0.0331714,-0.0332 q -0.29854255,0.49757 -0.46439952,1.161 -0.1326855784758,0.63026 -0.1326855784758,1.29368 0,0.36489 0.099514178476,0.72977 0.09951419,0.33172 0.33171395,0.72977 0.26537115,0.36489 0.7297707,0.79612 0.4643995,0.4644 1.1941702,1.06148 0.5970851,0.59709 1.6253983,0.59709 0.2985425,0 0.5639137,0 0.2985425,0 0.5639137,-0.0332 0.2653712,0 0.5639137,-0.0332 0.2985426,0 0.5639137,0 0.3648853,-0.13268 0.4975709,-0.16585 0.165857,-0.0332 0.4312282,-0.0332 h 0.3317139 q 0.5639137,0.13268 0.928799,0.2322 0.3648854,0.0995 0.6634279,0.0995 0.5639137,0 1.0946565,-0.2322 0.563913,-0.19903 0.995141,-0.63026 0.431228,-0.39805 0.6966,-0.96197 0.265371,-0.53074 0.265371,-1.16099 0,-0.0663 -0.03317,-0.13269 0,-0.0995 0,-0.16586 0.132686,0 0.298543,-0.0663 0.165857,-0.0663 0.331714,-0.0663 0.2322,0 0.530742,0.0663 0.331714,0.0663 0.663428,0.13269 0.331714,0.0663 0.663428,0.13268 0.364885,0.0332 0.796113,0.0332 0.4644,0 0.762943,-0.0332 0.331713,-0.0332 0.796113,-0.0663 z m -2.720054,-12.67147 v -0.16586 q 0.06634,0.39806 0.265371,0.72977 0.2322,0.33171 0.464399,0.63026 0.03317,0.0663 0.03317,0.0995 0,0 0,0 0,0.0332 0.03317,0.0663 0.06634,0.0332 0.09951,0.0995 -0.265371,-0.13269 -0.597085,-0.19903 -0.331714,-0.0663 -0.663428,-0.13269 0.165857,-0.2322 0.265371,-0.49757 0.09952,-0.26537 0.09952,-0.63025 z" />
      <path
         id="path861"
         style="font-style:normal;font-variant:normal;font-weight:normal;font-stretch:normal;font-family:JFRockOutcrop;-inkscape-font-specification:JFRockOutcrop;fill:#404040;stroke-width:0.26458329px"
         d="m 43.622454,285.45634 q 0,0.16586 0.06634,0.36489 0.06634,0.16586 0.09951,0.33171 l 0.09951,1.92394 q 0,0.0995 0.03317,0.2322 0.03317,0.13269 0.09951,0.19903 0,-0.0332 0,-0.29854 0.03317,-0.29854 0.06634,-0.59709 0.03317,-0.33171 0.09952,-0.56391 0.06634,-0.26537 0.199028,-0.26537 0,0 0,0 0.03317,0 0.03317,0.0332 l 0.199029,0.16586 q 0.09951,0.19903 0.199028,0.4644 0.132686,0.2322 0.298543,0.4644 0.165857,0.19902 0.364885,0.36488 0.2322,0.16586 0.497571,0.16586 v -0.0663 q -0.199028,-0.19903 -0.497571,-0.4644 -0.298543,-0.29855 -0.597085,-0.63026 -0.265371,-0.33171 -0.4644,-0.66343 -0.165857,-0.36488 -0.165857,-0.72977 0,-0.39806 0.298543,-0.63026 0.298542,-0.26537 0.696599,-0.39805 0.398057,-0.16586 0.796114,-0.2322 0.431228,-0.0663 0.696599,-0.0663 0.09951,0 0.331714,0 0.265371,-0.0332 0.530742,-0.0332 0.298543,-0.0332 0.530743,-0.0332 0.265371,0 0.364885,0 v -0.0332 q 0,-0.13268 -0.199028,-0.19903 -0.199029,-0.0663 -0.431229,-0.0995 -0.199028,-0.0663 -0.398056,-0.13269 -0.199029,-0.0663 -0.199029,-0.2322 v -0.0332 q 0.165857,-0.26537 0.398057,-0.56391 0.265371,-0.29854 0.331714,-0.63026 0.09951,-0.36488 0.09951,-0.72977 0.03317,-0.36488 0.199029,-0.72977 0.165856,-0.33171 0.431228,-0.63026 0.265371,-0.29854 0.265371,-0.66342 0,-0.2322 -0.265371,-0.33172 -0.2322,-0.13268 -0.398057,-0.29854 -0.298543,-0.43123 -0.597085,-0.82929 -0.265371,-0.43122 -0.630257,-0.82928 -0.06634,-0.0995 -0.364885,-0.39806 -0.298543,-0.29854 -0.364885,-0.36488 -0.09952,-0.13269 -0.09952,-0.43123 0,-0.36489 0.06634,-0.72977 0.09951,-0.36489 0.199029,-0.76294 v -0.16586 q 0,-0.0995 -0.03317,-0.2322 0,-0.16586 -0.165857,-0.16586 h -0.06634 q 0,0.16586 -0.09951,0.56392 -0.06634,0.36488 -0.298542,0.36488 -0.03317,0 -0.09951,-0.0663 -0.165857,-0.13269 -0.497571,-0.4644 -0.298543,-0.33171 -0.597085,-0.33171 0,0.0995 0.03317,0.13268 l 0.895628,1.3932 q 0.199028,0.26537 0.199028,0.56391 0,0.19903 -0.2322,0.19903 -0.364885,0 -0.663428,-0.0995 -0.298542,-0.13269 -0.630256,-0.13269 -0.06634,0 -0.199029,0.0332 -0.132685,0 -0.199028,0 -0.265371,0.0663 -0.464399,0.16586 -0.165857,0.0995 -0.398057,0.19903 -0.09951,0.0663 -0.398057,0.2322 -0.265371,0.13268 -0.597085,0.29854 -0.298543,0.13269 -0.597085,0.29854 -0.265371,0.13269 -0.364885,0.19903 -0.597086,0.33172 -0.796114,0.86246 -0.165857,0.53074 -0.165857,1.22734 l -0.298542,1.26051 v 0.16586 q 0,0.49757 0.232199,0.89563 0.265371,0.36488 0.563914,0.72977 0.331714,0.36488 0.563914,0.6966 0.265371,0.33171 0.265371,0.72977 0,0.19903 -0.132686,0.39806 l -0.563913,0.72977 q -0.06634,0.13268 -0.132686,0.33171 -0.03317,0.19903 -0.03317,0.33171 h 0.03317 q 0.132686,0 0.265371,-0.19902 0.132686,-0.2322 0.265371,-0.49758 0.165857,-0.26537 0.331714,-0.46439 0.165857,-0.2322 0.364886,-0.2322 h 1.160998 q 0.165857,-0.0663 0.398057,-0.0663 h 0.165857 q 0.09951,0.0663 0.09951,0.13269 0,0.0332 0,0.0995 0,0.13269 -0.03317,0.26537 0,0.0995 0,0.2322 z m -4.312281,8.45871 q -0.06634,-0.0663 -0.265372,-0.16586 -0.165856,-0.13268 -0.232199,-0.19903 l -0.199029,-0.19902 v -0.0332 q 0,-0.0332 0.06634,-0.0995 0.09951,-0.0663 0.165857,-0.13269 0.06634,-0.0332 0.199028,-0.13268 0.165857,-0.0995 0.2322,-0.13269 0,-0.0663 -0.298542,-0.13268 -0.298543,-0.0663 -0.398057,-0.16586 -0.199028,-0.16586 -0.298543,-0.33171 -0.09951,-0.19903 -0.165857,-0.43123 v -0.39806 q 0,-0.16586 0,-0.29854 0.03317,-0.13269 0.03317,-0.26537 -0.199029,0 -0.2322,0.29854 -0.03317,0.29854 -0.03317,0.43123 0,0.26537 0.06634,0.53074 0.06634,0.2322 0.06634,0.49757 0,0.36489 -0.398056,0.36489 -0.331714,0 -0.563914,-0.0995 -0.4644,-0.19903 -1.061485,-0.43123 -0.563913,-0.26537 -1.127827,-0.59708 -0.563914,-0.33171 -1.028313,-0.76294 -0.431229,-0.43123 -0.630257,-0.99514 -0.199028,-0.59709 -0.364885,-1.06149 -0.132686,-0.4644 -0.265371,-0.89563 -0.132686,-0.4644 -0.2322,-0.9288 -0.09951,-0.4644 -0.199029,-1.09465 -0.165857,-0.4644 -0.398056,-0.86246 -0.199029,-0.39805 -0.398057,-0.82928 -0.06634,-0.16586 -0.132686,-0.33172 -0.06634,-0.19903 -0.06634,-0.36488 0,-0.13269 -0.03317,-0.4644 0,-0.36489 0,-0.72977 0,-0.36489 -0.03317,-0.6966 0,-0.33172 0,-0.4644 v -0.16586 q 0,-1.3932 0.630256,-2.65371 l 0.06634,-0.43123 q 0,-0.0995 0,-0.33171 0.03317,-0.26537 0.06634,-0.56392 0.03317,-0.29854 0.03317,-0.53074 0.03317,-0.26537 0.03317,-0.36488 0,-0.13269 0.03317,-0.39806 0.06634,-0.29854 0.09951,-0.36489 l 1.260513,-3.15128 q 0.265371,-0.72977 0.829285,-1.02831 0.563914,-0.33171 1.260513,-0.56391 h 0.132686 q 0.364885,0 0.630256,0.2322 0.265371,0.2322 0.431228,0.59708 0.199029,0.33171 0.265371,0.72977 0.09952,0.36489 0.09952,0.66343 0,0.16586 -0.03317,0.36488 -0.03317,0.16586 -0.09951,0.33172 v 0.39805 q 0,0.4644 0.06634,0.86246 0.09951,0.39806 0.265371,0.86246 v -1.72492 q 0,-0.26537 0.132686,-0.56391 0.165857,-0.33171 0.464399,-0.33171 0.132686,0 0.298543,0.0332 0.165857,0.0332 0.232199,0.16586 l 0.298543,0.59708 q 0.06634,0.16586 0.265371,0.16586 0.09951,0 0.09951,-0.0995 0,-0.0995 -0.06634,-0.29854 -0.03317,-0.19903 -0.09952,-0.36488 -0.06634,-0.19903 -0.199028,-0.33172 -0.09951,-0.16586 -0.199028,-0.16586 h -0.6966 q -0.132685,0 -0.364885,-0.33171 -0.199028,-0.33171 -0.398057,-0.76294 -0.199028,-0.43123 -0.364885,-0.82929 -0.132686,-0.39805 -0.132686,-0.53074 0,-0.16586 0.06634,-0.2322 0.298543,-0.26537 0.431228,-0.49757 0.132686,-0.2322 0.2322,-0.43123 0.09951,-0.2322 0.199028,-0.43123 0.09952,-0.19902 0.331714,-0.46439 0.563914,-0.63026 1.260513,-0.89563 0.729771,-0.29855 1.492713,-0.39806 0.796114,-0.13268 1.592227,-0.16586 0.796113,-0.0663 1.559056,-0.2322 h 0.696599 q 0.2322,0 0.895627,0 0.6966,-0.0332 1.393199,0.0663 0.729771,0.0663 1.293684,0.29854 0.563914,0.2322 0.563914,0.72977 0,0.49757 -0.2322,0.96197 -0.232199,0.43123 -0.232199,0.9288 0,0.0663 0,0.2322 0,0.16586 0.132685,0.16586 0.09951,0 0.132686,-0.13269 0.03317,-0.13268 0.03317,-0.19903 0,-0.0995 -0.03317,-0.16585 -0.03317,-0.0663 -0.03317,-0.13269 0,-0.19903 0.06634,-0.49757 0.06634,-0.33172 0.199028,-0.63026 0.132686,-0.29854 0.298543,-0.49757 0.199028,-0.2322 0.398057,-0.2322 0.464399,0 0.995142,0.33172 0.563913,0.29854 0.829284,0.56391 l 0.995142,1.02831 q 0.03317,0.0332 0.199029,0.13269 0.199028,0.0995 0.298542,0.16586 0.09951,0.0663 0.331714,0.19902 0.2322,0.0995 0.497571,0.26537 0.298543,0.13269 0.530742,0.26538 0.265372,0.13268 0.364886,0.16585 0.928799,0.56392 1.19417,1.26052 0.265371,0.66342 0.364885,1.65857 0.06634,0.36488 0.165857,0.72977 0.132686,0.33171 0.132686,0.6966 v 0.0663 q 0,0.13268 -0.03317,0.36488 0,0.19903 0,0.19903 l -0.398056,2.322 q -0.03317,0.0332 -0.03317,0.16586 0,0.13268 0,0.19902 0,0.26538 0,0.56392 0.03317,0.29854 0.165857,0.56391 l 0.796114,1.55906 0.03317,0.0332 q 0.06634,-0.0663 0.03317,-0.16586 0,-0.13268 0,-0.19903 0,-0.33171 -0.03317,-0.4644 l -0.597085,-1.69174 q -0.09951,-0.29854 -0.09951,-0.59708 0,-0.0332 0,-0.43123 0,-0.39806 0.03317,-0.86246 0.06634,-0.49757 0.165857,-0.9288 0.09951,-0.43122 0.298543,-0.53074 0,-0.0332 0.06634,-0.0332 0.199028,0 0.265371,0.36489 0.06634,0.33171 0.09951,0.39805 0.298542,0.76295 0.597085,1.55906 0.331714,0.79611 0.331714,1.65857 0,0.4644 -0.03317,0.99514 -0.03317,0.49757 -0.03317,0.96197 -0.03317,0.26537 -0.165857,0.49757 -0.09951,0.2322 -0.09951,0.4644 0,0.29854 0.03317,0.63026 0.06634,0.29854 0.06634,0.63025 0,0.59709 -0.165857,1.12783 -0.132685,0.49757 -0.364885,0.99514 -0.199029,0.4644 -0.4644,0.96197 -0.265371,0.4644 -0.464399,0.99515 -0.03317,0.0332 -0.06634,0.16585 -0.03317,0.13269 -0.03317,0.19903 -0.03317,0.0995 -0.06634,0.33171 -0.03317,0.19903 -0.09951,0.4644 -0.03317,0.26538 -0.09952,0.49758 -0.03317,0.19902 -0.03317,0.29854 -0.06634,0.19903 -0.165857,0.36488 -0.06634,0.16586 -0.132685,0.33172 -0.364886,0.4644 -0.762943,1.06148 -0.398056,0.56392 -0.862456,1.06149 -0.464399,0.49757 -1.061484,0.86245 -0.563914,0.33172 -1.260513,0.33172 -0.398057,0 -0.729771,-0.13269 -0.331714,-0.13268 -0.563914,-0.26537 -0.2322,-0.16586 -0.364885,-0.29854 -0.132686,-0.13269 -0.165857,-0.13269 0,0.19903 0.06634,0.39806 0.06634,0.19903 0.06634,0.39806 0,0.36488 -0.563913,0.59708 -0.530743,0.2322 -1.227342,0.39806 -0.696599,0.16585 -1.326856,0.2322 -0.597085,0.0663 -0.72977,0.0663 -0.563914,0 -1.160999,-0.0663 -0.563914,-0.0663 -1.127827,-0.0663 -0.4644,0 -0.9288,0.13269 -0.431228,0.13269 -0.895627,0.13269 -0.663428,0 -1.293685,-0.29855 -0.597085,-0.26537 -1.160998,-0.56391 z m -4.146425,-0.79611 q 0.630257,0.63025 1.42637,1.02831 0.796114,0.39806 1.525884,0.6966 l -0.03317,-0.0332 q 0.06634,0.0663 0.165857,0.0663 0.09951,0.0332 0.2322,0.0995 l 0.03317,0.0332 q 0.165857,0.0663 0.364886,0.0995 0.232199,0.0332 0.398056,0.0332 0.06634,0 0.132686,-0.0332 0.09951,0 0.165857,0 l 0.497571,0.49757 q 0.03317,0.0332 0.09951,0.0995 0.06634,0.0663 0.2322,0.16586 0.06634,0.0332 0.132685,0.0663 0.06634,0.0663 0.03317,0.0332 0.03317,0.0332 0.06634,0.0332 0.06634,0.0332 0.09951,0.0663 l 0.03317,0.0332 q 0.630256,0.29854 1.293684,0.59709 0.663428,0.29854 1.360028,0.29854 0.331713,0 0.563913,-0.0332 0.2322,-0.0332 0.4644,-0.0995 0.2322,-0.0663 0.431228,-0.0995 0.199028,-0.0332 0.364885,-0.0332 0.2322,0 0.497571,0 0.265371,0.0332 0.563914,0.0663 0.265371,0.0332 0.563914,0.0332 0.298542,0.0332 0.663427,0.0332 0.132686,0 0.729771,-0.0995 0.630257,-0.0663 1.360027,-0.26537 0.729771,-0.19903 1.360027,-0.49757 0.663428,-0.29855 0.862457,-0.6966 0.265371,0.13268 0.563913,0.19903 0.298543,0.0995 0.663428,0.0995 0.729771,0 1.293685,-0.29854 0.597085,-0.26537 1.061484,-0.72977 0.497571,-0.43123 0.895628,-0.96197 0.398057,-0.53075 0.762942,-1.02832 0.199028,-0.29854 0.265371,-0.39805 0.06634,-0.0995 0.132686,-0.16586 l 0.132685,-0.26537 q 0.199029,-0.29854 0.265371,-0.63026 0,-0.0995 0.03317,-0.33171 0.06634,-0.2322 0.09951,-0.4644 0.06634,-0.26537 0.09951,-0.49757 0.03317,-0.2322 0.06634,-0.33172 0,-0.0332 0,-0.0663 0.03317,-0.0663 0.03317,-0.0663 0.165857,-0.43123 0.298543,-0.6966 0.132686,-0.29854 0.265371,-0.56392 0.364885,-0.72977 0.663428,-1.42637 0.298543,-0.72977 0.298543,-1.69174 0,-0.26537 -0.03317,-0.43122 0,-0.16586 -0.03317,-0.33172 -0.03317,-0.16586 -0.03317,-0.26537 0,-0.0995 0,-0.2322 0,-0.0995 0.09952,-0.29854 0.06634,-0.16586 0.09951,-0.29854 0.06634,-0.13269 0.06634,-0.36489 0,-0.19903 0,-0.39806 0,-0.2322 0.03317,-0.49757 0,-0.26537 0,-0.53074 0.03317,-0.26537 0.03317,-0.53074 0,-0.76294 -0.265371,-1.52589 -0.265371,-0.79611 -0.563914,-1.49271 -0.06634,-0.0663 -0.09951,-0.16586 0,-0.13268 -0.03317,-0.2322 -0.03317,-0.19902 -0.132686,-0.4644 -0.06634,-0.26537 -0.232199,-0.46439 l -0.530743,-0.49758 q 0,-0.0663 -0.03317,-0.0995 0,-0.0663 0,-0.13269 0,-0.0332 -0.03317,-0.16585 -0.03317,-0.16586 -0.06634,-0.36489 v -0.0332 q -0.06634,-0.82928 -0.265371,-1.45954 -0.165857,-0.63026 -0.729771,-1.19417 l -1.127828,-1.09466 q -0.398056,-0.76294 -1.360027,-1.32685 -0.09951,-0.0332 -0.331714,-0.16586 -0.232199,-0.13268 -0.530742,-0.26537 -0.265371,-0.13269 -0.530742,-0.2322 -0.2322,-0.13269 -0.331714,-0.19903 h 0.03317 q -0.165857,-0.0995 -0.199028,-0.13268 -0.03317,-0.0332 -0.199029,-0.0995 l -0.995141,-0.99514 q -0.165857,-0.13269 -0.431229,-0.33171 -0.265371,-0.19903 -0.597085,-0.36489 -0.298542,-0.16586 -0.630256,-0.26537 -0.298543,-0.13269 -0.597085,-0.13269 -0.132686,0 -0.331714,0.0663 -0.265371,-0.29855 -0.696599,-0.49757 -0.398057,-0.19903 -0.895628,-0.29855 -0.4644,-0.0995 -0.995142,-0.13268 -0.530742,-0.0332 -0.96197,-0.0332 h -1.857598 q -0.497571,0.0995 -0.9288,0.16585 -0.398056,0.0332 -0.762942,0.0995 h -0.09951 q -1.227341,0.0995 -2.38834,0.36488 -1.127828,0.26537 -2.056627,1.29369 -0.265371,0.29854 -0.398056,0.53074 -0.132686,0.2322 -0.2322,0.4644 l -0.06634,0.0663 q -0.06634,0.16586 -0.165857,0.36489 -0.09951,0.16585 -0.298542,0.36488 -0.165857,0.16586 -0.2322,0.39806 -0.06634,0 -0.132686,0 -0.06634,-0.0332 -0.132685,-0.0332 h -0.2322 q -0.862456,0.26537 -1.559056,0.6966 -0.696599,0.39805 -1.061484,1.32685 l -1.260513,3.15129 v 0.0332 q -0.06634,0.19902 -0.132686,0.53074 -0.03317,0.33171 -0.03317,0.4644 h 0.03317 q -0.06634,0.26537 -0.06634,0.43123 0,0.0995 -0.03317,0.2322 0,0.0995 0,0.16585 v 0.16586 q -0.03317,0.19903 -0.06634,0.39806 0,0.16585 0,0.26537 l -0.06634,0.33171 q -0.298542,0.72977 -0.464399,1.42637 -0.165857,0.66343 -0.165857,1.42637 v 0.4644 q 0,0.16586 0,0.39806 0.03317,0.19903 0.03317,0.4644 0.03317,0.36488 0.03317,0.6966 0,0.33171 0,0.49757 0,0.26537 0.06634,0.53074 0.09951,0.26537 0.199028,0.4644 0.03317,0.0663 0.06634,0.16586 0.03317,0.0663 0.06634,0.13268 0.03317,0.0663 0.06634,0.13269 0.03317,0.0663 0.09951,0.16585 l -0.03317,-0.0332 q 0.132686,0.26537 0.265371,0.49757 0.132686,0.2322 0.199029,0.43123 0.165857,1.161 0.364885,1.92394 0.199028,0.72977 0.563914,1.65857 l 0.09951,0.29855 q 0.03317,0.0663 0.03317,0.0995 0,0.0332 0.03317,0.0995 0.199028,0.63026 0.630256,1.12783 0.431228,0.4644 0.995142,0.82929 z m 8.55822,-9.0558 h -0.331714 q -0.165857,0 -0.298542,0 -0.132686,0 -0.298543,0.0663 h -0.199028 q -0.2322,-0.26537 -0.398057,-0.53074 -0.165857,-0.29855 -0.165857,-0.59709 v -0.0332 l 0.298543,-1.26051 q 0,-0.59709 0.132685,-1.02832 0.132686,-0.4644 0.530742,-0.6966 0.09952,-0.0663 0.364886,-0.19903 0.265371,-0.13268 0.597085,-0.29854 0.298542,-0.16585 0.597085,-0.29854 0.298542,-0.16586 0.431228,-0.2322 h -0.03317 q 0.06634,-0.0663 0.132685,-0.0663 0.06634,-0.0332 0.132686,-0.0663 0.06634,-0.0332 0.165857,-0.0663 0.09951,-0.0663 0.165857,-0.0995 h 0.199028 q 0.06634,0 0.09951,0 0.06634,-0.0332 0.09951,-0.0332 0.199028,0 0.464399,0.0663 0.398057,0.16586 0.829285,0.16586 h 0.03317 q 0.06634,0.0995 0.132686,0.19902 0.06634,0.0995 0.132685,0.16586 l -0.03317,-0.0332 q 0.03317,0.0663 0.06634,0.0995 0.03317,0.0332 0.06634,0.0995 0,0.0663 0.165857,0.2322 0.132685,0.16585 0.232199,0.26537 0.132686,0.0663 0.2322,0.13268 -0.132685,0.19903 -0.199028,0.26538 l -0.06634,0.0663 q -0.132686,0.16586 -0.165857,0.2322 -0.03317,0.0332 -0.165857,0.29854 -0.132686,0.26537 -0.165857,0.53074 -0.03317,0.26537 -0.06634,0.49757 -0.03317,0.16586 -0.06634,0.26538 0,0.0663 -0.06634,0.43122 -0.06634,0.0663 -0.165857,0.19903 -0.09951,0.13269 -0.165857,0.2322 -0.06634,0.0995 -0.165857,0.26537 -0.09951,0.13269 -0.09951,0.13269 -0.06634,0.13268 -0.09952,0.16586 v 0.29854 q -0.464399,0.0332 -1.160998,0.19903 -0.663428,0.13268 -1.194171,0.53074 -0.09951,-0.26537 -0.530742,-0.56392 z m 5.639137,9.02262 0.03317,0.0332 q -0.03317,0 -0.03317,0 0,-0.0332 0,-0.0332 z" />
      <path
         id="path863"
         style="font-style:normal;font-variant:normal;font-weight:normal;font-stretch:normal;font-family:JFRockOutcrop;-inkscape-font-specification:JFRockOutcrop;fill:#404040;stroke-width:0.26458329px"
         d="m 73.420733,293.94822 q -0.2322,0 -0.431229,0.0332 -0.199028,0.0332 -0.431228,0.0332 -0.09951,0 -0.199028,0.0332 -0.09951,0 -0.199028,-0.0663 -0.199029,-0.19903 -0.298543,-0.26537 -0.06634,-0.0663 -0.265371,-0.0663 -0.630257,0 -1.19417,0.26537 -0.530743,0.26537 -1.194171,0.26537 -0.331714,0 -0.72977,0 -0.364886,-0.0332 -0.663428,-0.19903 l -0.995142,-0.53074 q -0.199028,-0.0663 -0.298543,-0.0663 h -0.06634 q 0,0 -0.06634,0.0332 -0.03317,0 -0.06634,0 -0.265371,0.26537 -0.497571,0.39805 -0.199028,0.13269 -0.431228,0.2322 -0.2322,0.0663 -0.497571,0.0995 -0.265371,0 -0.663428,0 -0.563913,0 -1.127827,-0.26537 -0.563914,-0.29855 -0.563914,-0.96197 0,-0.4644 0.298543,-0.76295 0.298542,-0.33171 0.298542,-0.76294 0,-0.29854 -0.232199,-0.53074 -0.199029,-0.2322 -0.199029,-0.53074 -0.03317,-0.79612 -0.06634,-1.59223 0,-0.79611 0,-1.59223 0,-0.0995 0,-0.43122 0,-0.33172 0.03317,-0.6966 0.03317,-0.36489 0.09951,-0.63026 0.09951,-0.29854 0.298542,-0.29854 0.2322,0 0.398057,0.29854 l 0.829285,1.32686 q 0,0.0332 0,0.0332 0.03317,0 0.03317,0 h 0.03317 q 0.06634,0 0.06634,-0.13269 0,-0.0995 -0.09951,-0.29854 l -0.995141,-1.99028 q -0.431228,-0.82929 -0.497571,-1.69175 l -0.2322,-6.00402 v -0.4644 -0.43123 q 0.03317,-0.26537 0.03317,-0.69659 0.03317,-0.43123 0.06634,-0.43123 l 0.597085,-1.22734 q 0.132686,-0.33172 0.563914,-0.43123 0.464399,-0.13269 0.762942,-0.13269 0.06634,0 0.265371,0.0663 0.2322,0.0663 0.4644,0.13269 0.265371,0.0663 0.464399,0.13269 0.199029,0.0663 0.265371,0.0995 0.165857,0.0995 0.199029,0.29854 0.06634,0.16586 0.232199,0.16586 0.132686,0 0.132686,-0.0995 0,-0.0995 -0.132686,-0.33172 -0.09951,-0.2322 -0.199028,-0.29854 -0.431228,-0.0663 -0.762942,-0.26537 -0.331714,-0.19903 -0.729771,-0.29854 0.2322,-0.26538 0.364886,-0.53075 0.132685,-0.29854 0.464399,-0.49757 0.06634,-0.0663 0.06634,-0.13268 0,-0.13269 -0.09951,-0.13269 h -0.03317 q -0.298542,0.26537 -0.530742,0.56391 -0.2322,0.26538 -0.464399,0.53075 -0.2322,0.2322 -0.563914,0.39805 -0.298543,0.16586 -0.729771,0.16586 -0.199028,0 -0.431228,-0.13269 -0.199028,-0.13268 -0.199028,-0.36488 0,-0.16586 0.06634,-0.2322 v -0.26537 q 0,-0.49757 -0.06634,-0.99514 -0.03317,-0.49757 -0.03317,-0.96197 0,-0.99515 0.398057,-1.79126 0.431228,-0.79611 1.559056,-0.79611 0.331714,0 0.630256,0.16585 0.331714,0.16586 0.696599,0.16586 h 0.2322 q 0.862456,-0.19903 1.625398,-0.2322 0.796114,-0.0663 1.65857,-0.0663 h 0.431228 q 0.431228,0.13268 0.961971,0.36488 0.2322,0.13269 0.364885,0.49758 0.132686,0.33171 0.132686,0.59708 0,0.4644 -0.199029,0.82929 -0.165857,0.36488 -0.165857,0.79611 0,0.19903 0.03317,0.43123 0.03317,0.19903 0.132685,0.36488 h 0.03317 q 0.06634,0 0.06634,-0.0663 0,-0.0663 0,-0.13269 0,-0.16585 -0.09951,-0.29854 -0.06634,-0.13268 -0.06634,-0.29854 0,-0.33172 0.132685,-0.63026 0.165857,-0.29854 0.298543,-0.59708 0.165857,-0.39806 0.165857,-0.66343 0,-0.26537 0.03317,-0.43123 0.03317,-0.19903 0.199028,-0.33171 0.165857,-0.16586 0.663428,-0.33172 0.09951,0 0.331714,0 0.265371,0 0.530743,0 0.298542,-0.0332 0.530742,-0.0332 0.265371,0 0.364885,0 h 0.2322 0.199028 q 0.265371,0.16586 0.4644,0.39806 0.2322,0.2322 0.563914,0.2322 0.265371,0 0.431228,-0.26537 0.199028,-0.26537 0.431228,-0.39806 0.431228,-0.0663 0.597085,-0.0663 0.199028,0 0.530742,0 h 0.199029 q 0.132685,0 0.464399,0 0.364885,0 0.762942,0.0332 0.398057,0 0.762942,0.0332 0.364886,0 0.497571,0 0.431228,0 0.696599,0.2322 0.265372,0.2322 0.398057,0.56391 0.165857,0.33172 0.199028,0.72977 0.06634,0.36489 0.06634,0.6966 0,0.4644 -0.165857,0.86246 -0.132685,0.36489 -0.132685,0.82929 v 0.26537 q 0.132685,0.43122 0.265371,0.99514 0.132685,0.56391 0.132685,1.06148 0,0.76294 -0.331713,1.22734 -0.331714,0.4644 -1.094656,0.4644 -0.132686,0 -0.398057,0 -0.2322,0 -0.530743,-0.0332 -0.265371,-0.0332 -0.49757,-0.0995 -0.2322,-0.0663 -0.331714,-0.2322 -0.06634,-0.13269 -0.06634,-0.2322 0,-0.13269 -0.06634,-0.26537 h -0.09951 q -0.298543,0 -0.364885,0.29854 -0.03317,0.26537 -0.265372,0.39806 -0.597085,-0.0332 -1.19417,0.0663 -0.597085,0.0663 -1.19417,0.0663 -0.331714,0 -0.663428,0 -0.298542,-0.0332 -0.630256,-0.0332 -0.2322,0 -0.630257,0 -0.364885,0 -0.762942,0.0995 -0.398057,0.0663 -0.729771,0.23219 -0.298542,0.16586 -0.364885,0.49758 -0.06634,0.33171 -0.132686,0.66342 -0.03317,0.29855 -0.232199,0.59709 -0.298543,0.29854 -0.663428,0.59708 -0.364886,0.29855 -0.6966,0.66343 -0.331713,0.33172 -0.563913,0.72977 -0.2322,0.36489 -0.2322,0.86246 0,0.0332 0,0.16586 0,0.13268 0,0.29854 0.03317,0.13268 0.03317,0.26537 0.03317,0.0995 0.09951,0.0995 v -0.0332 l 0.06634,-0.16585 v -1.09466 q 0,-0.29854 0.265372,-0.43123 0.265371,-0.13268 0.49757,-0.13268 0.2322,0 0.398057,0.13268 0.199029,0.13269 0.331714,0.29854 0.165857,0.13269 0.331714,0.26537 0.165857,0.13269 0.398057,0.13269 0.165857,0 0.165857,-0.0995 0,-0.19903 -0.165857,-0.33172 -0.132686,-0.16585 -0.331714,-0.29854 -0.199028,-0.13269 -0.431228,-0.2322 -0.199029,-0.0995 -0.331714,-0.16586 v -0.0332 q 0,-0.26537 0.497571,-0.56391 0.497571,-0.29854 1.160999,-0.56392 0.663427,-0.26537 1.293684,-0.43122 0.630256,-0.19903 0.895628,-0.19903 0.165857,0 0.298542,0 0.165857,0 0.331714,0.0332 0.165857,0.0995 0.4644,0.29854 0.331714,0.16586 0.597085,0.16586 0.96197,0 1.923941,-0.26537 0.96197,-0.29855 1.957112,-0.29855 1.094656,0 1.42637,0.56392 0.331714,0.53074 0.331714,1.59223 0,0.0663 -0.03317,0.29854 0,0.2322 0,0.29854 -0.06634,0.29854 -0.09951,0.49757 0,0.16586 0,0.43123 0,0.4644 0.09951,0.9288 0.132686,0.43123 0.132686,0.89563 0,0.6966 -0.331714,1.06148 -0.331714,0.36489 -0.862456,0.53074 -0.497571,0.16586 -1.094656,0.2322 -0.563914,0.0332 -1.061485,0.0663 -0.298542,0.0332 -0.597085,0.0995 -0.265371,0.0332 -0.563914,0.0332 -0.663428,0 -0.895627,-0.13268 -0.2322,-0.16586 -0.398057,-0.33172 -0.165857,-0.16586 -0.4644,-0.29854 -0.265371,-0.16586 -0.96197,-0.16586 v 0.0995 q 0.06634,0.0332 0.165857,0.13268 0.09951,0.0995 0.09951,0.19903 0,0.16586 -0.298542,0.2322 -0.265372,0.0663 -0.331714,0.0663 l -2.056627,0.16586 -0.165857,0.0663 v 0.13269 q 0,0.53074 0.2322,1.02831 0.2322,0.4644 0.2322,0.9288 0,0.2322 -0.165857,0.49757 -0.132686,0.2322 -0.265371,0.39806 -0.06634,0.0663 -0.199029,0.26537 -0.132685,0.19903 -0.298542,0.39806 -0.165857,0.19902 -0.331714,0.39805 -0.132686,0.16586 -0.199029,0.2322 -0.165857,0.26537 -0.298542,0.56392 -0.09951,0.26537 -0.09951,0.59708 0,0.13269 0,0.26537 0.03317,0.13269 0.09951,0.2322 0.03317,-0.13268 0.165857,-0.56391 0.132685,-0.4644 0.199028,-0.59709 0.09951,-0.29854 0.364885,-0.6966 0.298543,-0.39805 0.6966,-0.39805 h 1.42637 q 0,0 0.165857,-0.0332 0.165857,-0.0663 0.232199,-0.13269 -0.06634,-0.0663 -0.199028,-0.0995 -0.132686,-0.0663 -0.199028,-0.0663 h -0.928799 l -0.03317,-0.0332 v -0.0332 q 0,-0.0332 0,-0.16586 0.03317,-0.13268 0.03317,-0.16585 v -0.0332 q 0,-0.2322 -0.03317,-0.43123 0,-0.19903 0,-0.43123 v -0.29854 q 0.03317,-0.19903 0.2322,-0.26537 0.2322,-0.0995 0.398057,-0.16586 h 0.497571 q 0.464399,0 0.862456,0.0332 0.431228,0.0332 0.895628,0 0.265371,0.26537 0.398056,0.39806 0.132686,0.0995 0.398057,0.19903 0.06634,0 0.2322,-0.29855 0.165857,-0.29854 0.331714,-0.36488 0.72977,-0.26537 1.559055,-0.2322 0.862457,0.0332 1.625399,0.0332 h 1.160998 q 0.762942,0.0995 1.127828,0.79611 0.364885,0.66343 0.364885,1.3932 v 0.2322 q -0.165857,0.4644 -0.331714,0.96197 -0.165857,0.49757 -0.165857,0.99514 0,0.36489 0.2322,0.49757 0.2322,0.13269 0.298543,0.4644 v 0.53075 q 0,1.02831 -0.298543,1.79125 -0.298543,0.72977 -1.459541,0.72977 -0.265372,0 -0.563914,0.0332 -0.298543,0 -0.563914,-0.0995 -0.364885,-0.16586 -0.696599,-0.49757 -0.331714,-0.33172 -0.696599,-0.33172 -0.165857,0 -0.199029,0.16586 -0.03317,0.13269 -0.06634,0.29854 -0.03317,0.16586 -0.09952,0.33172 -0.03317,0.13268 -0.232199,0.13268 l -2.720055,0.13269 q -0.165857,0 -0.331714,0.0332 -0.132685,0.0663 -0.298542,0.0663 h -0.09951 q -0.265372,-0.13268 -0.4644,-0.19903 -0.199028,-0.0995 -0.464399,-0.0995 z m -9.321162,1.79126 q 0.364885,0.36488 0.829285,0.49757 0.49757,0.13268 0.96197,0.13268 0.829285,0 1.260513,-0.13268 0.464399,-0.0995 1.061485,-0.63026 0,0.0332 0.06634,0.0332 l 0.928799,0.49757 q 0.398057,0.19903 0.829285,0.2322 0.4644,0.0332 0.829285,0.0332 0.364885,0 0.696599,-0.0995 0.331714,-0.0663 0.6966,-0.19903 0.265371,-0.0663 0.497571,-0.16586 0.232199,-0.0663 0.497571,-0.0663 l 0.165857,0.16586 q 0.165856,0.16585 0.265371,0.16585 0.09951,0.0332 0.265371,0.0332 h 0.265371 q 0.06634,0 0.165857,0 0.09951,0 0.265371,-0.0332 0.09951,0 0.199028,-0.0332 0.09951,0 0.2322,0 0.09951,0 0.265371,0.0663 0.199029,0.0995 0.431229,0.19902 0.03317,0 0.09951,0 0.09951,0.0332 0.132685,0.0332 h 0.09951 q 0.09952,0 0.199029,0 0.09951,0 0.265371,-0.0663 0.03317,0 0.06634,-0.0332 0.03317,0 0.09951,0 l 2.720054,-0.13268 h 0.03317 q 0.464399,-0.0332 0.597085,-0.26537 0.165857,-0.2322 0.2322,-0.49758 0.03317,0.0332 0.06634,0.0332 0.03317,0.0332 0.09951,0.0995 l 0.03317,0.0332 q 0.265371,0.26537 0.696599,0.43123 l 0.03317,0.0332 q 0.199028,0.0663 0.364885,0.0663 0.165857,0.0332 0.331714,0.0332 h 0.630256 q 0.762942,0 1.227342,-0.26537 0.464399,-0.2322 0.696599,-0.66342 0.265371,-0.39806 0.331714,-0.96197 0.06634,-0.56392 0.06634,-1.19417 v -0.63026 q -0.03317,-0.2322 -0.09951,-0.33172 -0.06634,-0.0995 -0.132686,-0.16585 -0.03317,-0.0663 -0.06634,-0.0663 -0.03317,-0.0332 -0.06634,-0.0995 l -0.165857,-0.13268 v -0.0663 q 0,-0.36488 0.09951,-0.72977 0.09951,-0.36488 0.2322,-0.72977 0.03317,-0.0663 0.06634,-0.19903 0.06634,-0.16585 0.09951,-0.2322 v -0.29854 q 0,-0.56391 -0.199029,-1.12783 -0.199028,-0.59708 -0.630256,-1.02831 l -0.165857,-0.13269 q 0.03317,0 0.03317,0.0332 0,0 0.03317,0 l -1.061485,-1.02832 q 0,-0.0332 -0.03317,-0.0663 0.49757,-0.2322 0.829284,-0.66343 0.331714,-0.4644 0.331714,-1.32685 0,-0.56392 -0.09951,-1.02832 -0.06634,-0.2322 -0.09951,-0.43123 -0.03317,-0.19902 -0.03317,-0.36488 0,-0.26537 0,-0.43123 0.03317,-0.19903 0.09951,-0.49757 0,-0.0663 0,-0.16586 0.03317,-0.0995 0.03317,-0.19903 v -0.23219 q 0,-0.76295 -0.09951,-1.29369 -0.09951,-0.53074 -0.4644,-0.89563 l -0.09951,-0.0663 q 0.03317,0.0332 0.03317,0.0332 0.03317,0 0.06634,0.0332 l -1.094656,-1.09465 q 0.995142,-0.0332 1.42637,-0.63026 0.4644,-0.63026 0.4644,-1.6254 0,-0.53074 -0.132686,-1.09465 -0.132685,-0.56392 -0.265371,-1.02832 v -0.19903 q 0,-0.39805 0.09951,-0.69659 0.06634,-0.26538 0.132686,-0.49758 0.06634,-0.26537 0.06634,-0.49757 0,-0.56391 -0.132686,-1.19417 -0.132685,-0.66342 -0.563914,-1.09465 l -1.227341,-1.19417 q -0.199029,-0.43123 -0.597085,-0.6966 -0.364886,-0.29854 -0.995142,-0.36489 -0.132686,0 -0.497571,0 -0.364885,-0.0332 -0.796113,-0.0332 -0.398057,-0.0332 -0.762943,-0.0332 -0.364885,0 -0.49757,0 h -0.199029 q -0.464399,0 -0.696599,0 -0.2322,0 -0.663428,0.0663 -0.364885,0.19903 -0.630256,0.56392 -0.06634,0.0663 -0.06634,0.0995 -0.09951,-0.0663 -0.165857,-0.16586 0.03317,0.0332 -0.09951,-0.0663 -0.132686,-0.0995 -0.265372,-0.19903 -0.06634,-0.0663 -0.132685,-0.0995 -0.06634,-0.0332 -0.132686,-0.0995 H 74.08416 q -0.132685,0 -0.331714,0.0332 -0.165857,0 -0.331713,0 h -0.961971 q -0.829285,0.2322 -1.127827,0.53074 -0.09951,-0.0663 -0.199029,-0.13269 -0.06634,-0.0995 -0.165857,-0.16585 -0.09951,-0.0663 -0.331714,-0.13269 -0.199028,-0.0663 -0.663428,-0.19903 h -0.530742 q -0.928799,0 -1.791255,0.0663 -0.829285,0.0332 -1.691741,0.2322 h -0.03317 q -0.165857,0 -0.199028,-0.0332 -0.03317,0 -0.06634,0 0,-0.0332 -0.03317,-0.0332 h 0.03317 q -0.265371,-0.0995 -0.563913,-0.16586 -0.265372,-0.0995 -0.497571,-0.0995 -0.762942,0 -1.260513,0.26537 -0.497571,0.26537 -0.796114,0.72977 -0.298542,0.43123 -0.431228,1.02831 -0.132686,0.59709 -0.132686,1.22735 0,0.26537 0,0.53074 0,0.2322 0.03317,0.49757 0.03317,0.26537 0.03317,0.49757 0.03317,0.2322 0.03317,0.43123 v 0.0663 q -0.06634,0.16586 -0.06634,0.43123 0,0.63026 0.630256,0.96197 l -0.696599,1.3932 0.199028,-0.0995 q -0.132685,0.16586 -0.165857,0.63026 0,0.0663 -0.03317,0.16586 0,0.0995 0,0.16585 v 1.161 l 0.2322,6.00403 q 0.03317,0.4644 0.165857,0.96197 0.132685,0.49757 0.331714,0.89562 -0.2322,0.13269 -0.364886,0.43123 -0.132685,0.26537 -0.232199,0.63026 -0.06634,0.33171 -0.09951,0.6966 0,0.33171 0,0.59708 v 0.26537 q 0,0.79612 0,1.6254 0.03317,0.79612 0.06634,1.59223 0,0.29854 0.06634,0.49757 0.09951,0.19903 0.2322,0.36489 0.03317,0.0332 0.03317,0.0663 0,0 0.03317,0.0332 0,0.0332 0.06634,0.0995 -0.03317,0.0663 -0.09951,0.16586 -0.03317,0.0995 -0.09951,0.16586 v 0.0332 q -0.398057,0.49757 -0.398057,1.12783 0,0.59708 0.265371,0.96197 0.265372,0.36488 0.6966,0.59708 z m 1.42637,-7.46357 q 0,0 -0.03317,-0.0332 z" />
      <path
         id="path865"
         style="font-style:normal;font-variant:normal;font-weight:normal;font-stretch:normal;font-family:JFRockOutcrop;-inkscape-font-specification:JFRockOutcrop;fill:#404040;stroke-width:0.26458329px"
         d="m 91.562379,293.15211 q -0.06634,0 -0.09951,0.13268 0,0.13269 -0.06634,0.29854 -0.03317,0.13269 -0.132685,0.29855 -0.06634,0.16585 -0.265372,0.19903 -0.563913,0.0663 -0.862456,0.0663 -0.265371,0 -0.72977,0 -0.862457,0 -1.360028,-0.56392 -0.497571,-0.56391 -0.497571,-1.45954 v -0.2322 q 0.09951,-0.0995 0.132686,-0.0995 0.165857,0 0.265371,0.16586 0.09951,0.16585 0.265371,0.16585 0.165857,0 0.165857,-0.16585 v -0.0332 q -0.431228,-0.36489 -0.597085,-0.76295 -0.165857,-0.43123 -0.165857,-0.99514 0,-0.26537 0.03317,-0.39806 v -2.28882 q 0.03317,-0.6966 0.265371,-1.22734 0.265371,-0.56392 1.094656,-0.56392 h 0.199028 q 0.06634,0.0332 0.06634,0.16586 0.03317,0.13269 0.03317,0.29854 0.03317,0.13269 0.06634,0.26537 0.03317,0.0995 0.132686,0.0995 h 0.03317 q 0.199028,-0.49757 0.729771,-0.63026 0.563914,-0.16586 1.028313,-0.16586 0.431228,0 0.862456,0.2322 0.4644,0.19903 0.4644,0.6966 0,0.36489 -0.132686,0.66343 -0.132685,0.29854 -0.331714,0.59709 -0.165857,0.29854 -0.298542,0.63025 -0.132686,0.29855 -0.132686,0.63026 h 0.06634 q 0.165857,0 0.331714,-0.33171 0.199028,-0.36489 0.364885,-0.79612 0.199029,-0.4644 0.398057,-0.86245 0.199028,-0.43123 0.398057,-0.59709 h 0.03317 l 0.06634,0.0663 q 0,0.26537 0,0.59709 0.03317,0.33171 0.165857,0.59708 0,0.0332 0.06634,0.16586 0.09951,0.0995 0.199028,0.26537 0.09951,0.13269 0.165857,0.26537 0.06634,0.0995 0.06634,0.13269 v 1.09465 q 0,0 0.09951,0.29855 0.09951,0.26537 0.165857,0.43123 0.03317,0.0332 0.03317,0.0663 0,0 0.03317,0.0332 0.06634,-0.56391 0.06634,-0.89563 0.03317,-0.36488 0.03317,-0.82928 v -0.29855 q -0.06634,-0.19902 -0.199028,-0.33171 -0.132686,-0.13269 -0.265372,-0.26537 -0.132685,-0.13269 -0.232199,-0.26537 -0.09951,-0.13269 -0.09951,-0.39806 0,-0.26537 0.09951,-0.49757 0.132685,-0.26537 0.132685,-0.53074 0,-0.0663 -0.03317,-0.0995 -0.331714,-0.0332 -0.497571,-0.16585 -0.132686,-0.13269 -0.265371,-0.26537 -0.09951,-0.13269 -0.265371,-0.26538 -0.132686,-0.13268 -0.431229,-0.19902 -0.06634,0 -0.06634,-0.0995 -0.132686,-0.76294 -0.165857,-1.49271 0,-0.72977 0,-1.49271 v -0.99515 l 0.298542,-4.71033 q 0.03317,-0.4644 0.199029,-0.76295 0.199028,-0.33171 0.464399,-0.66342 l 0.03317,-0.0332 q 0,-0.0995 -0.132686,-0.0995 -0.09951,-0.0332 -0.165857,-0.0332 -0.364885,0 -0.696599,0.2322 -0.331714,0.2322 -0.729771,0.2322 -0.862456,0 -1.127827,-0.0663 -0.265372,-0.0995 -0.298543,-0.2322 -0.03317,-0.13269 0,-0.2322 0.03317,-0.13269 -0.165857,-0.19903 l -0.03317,-0.0332 q -0.09951,0 -0.132686,0.0995 0,0.0995 -0.09951,0.19903 -0.06634,0.0995 -0.298543,0.19903 -0.199028,0.0995 -0.663428,0.0995 -0.03317,0 -0.165856,0 -0.09951,0 -0.132686,-0.0332 -0.331714,-0.0663 -0.497571,-0.26537 -0.132686,-0.2322 -0.199028,-0.49757 -0.03317,-0.29854 -0.03317,-0.59709 0.03317,-0.29854 0.03317,-0.56391 0,-0.2322 -0.03317,-0.56391 -0.03317,-0.33172 0,-0.66343 0.03317,-0.33172 0.165857,-0.56392 0.165857,-0.23219 0.530743,-0.23219 0.199028,0 0.331713,0.19902 0.132686,0.16586 0.2322,0.36489 0.09951,0.19903 0.199029,0.39806 0.09951,0.16585 0.265371,0.16585 0.06634,0 0.06634,-0.0995 v -0.0332 q 0,0 0,-0.0332 0,-0.0663 -0.03317,-0.0663 -0.06634,-0.13268 -0.265371,-0.49757 -0.165857,-0.36488 -0.2322,-0.4644 -0.09951,-0.16585 -0.2322,-0.29854 -0.09951,-0.13269 -0.265371,-0.13269 -0.132685,0 -0.265371,0.0332 -0.09951,0.0332 -0.265371,0.0332 -0.132686,0 -0.199028,-0.0995 0.03317,-0.39805 0,-0.79611 -0.03317,-0.39806 -0.03317,-0.76294 0,-0.82929 0.398057,-1.42637 0.398057,-0.59709 1.293684,-0.59709 h 0.165857 q 0.06634,0 0.398057,0 0.331714,0 0.398057,0.0332 0.398057,0.16586 0.497571,0.43123 0.09951,0.26537 0.199028,0.63026 0,0.0663 0.06634,0.0663 0.09951,0 0.132685,-0.16586 0.06634,-0.16585 0.165857,-0.36488 0.132686,-0.19903 0.431229,-0.36489 0.298542,-0.16585 0.928799,-0.16585 0.431228,0 0.563913,0.26537 0.165857,0.26537 0.398057,0.26537 0.09951,0 0.132686,-0.0663 0.03317,-0.0995 0.03317,-0.19903 0.03317,-0.13269 0.06634,-0.19903 0.06634,-0.0995 0.2322,-0.0995 0.09951,0 0.199028,0.0332 0.09951,0 0.199028,0 0.265371,0 0.530743,0 0.265371,-0.0332 0.530742,-0.0332 0.497571,0 1.094656,0.0332 0.630256,0 0.995142,0.0332 0.431228,0.0663 0.796113,0.43123 0.364886,0.33171 0.364886,0.79611 0,0.16586 -0.03317,0.2322 l -0.729771,1.32685 q -0.06634,0.13269 -0.232199,0.26538 -0.165857,0.13268 -0.331714,0.13268 l -0.928799,0.0663 q -0.165857,0.0332 -0.265371,0.16586 -0.06634,0.0995 -0.132686,0.2322 l -1.260513,3.11811 h 0.06634 q 0.03317,-0.0332 0.165857,-0.26537 0.132685,-0.2322 0.331714,-0.59708 0.232199,-0.36489 0.364885,-0.59709 0.03317,-0.0663 0.132686,-0.2322 0.09951,-0.19903 0.199028,-0.39806 0.09951,-0.19902 0.199028,-0.39805 0.09951,-0.19903 0.132686,-0.26537 0.165857,-0.29855 0.464399,-0.39806 0.331714,-0.0995 0.630257,-0.0995 0.729771,0 0.729771,0.89562 v 1.92394 q 0,0.26538 0.06634,0.63026 0.06634,0.36489 0.199029,0.63026 0.09951,-0.36489 0.132685,-0.72977 0.03317,-0.39806 0.03317,-0.76295 0,-0.6966 -0.06634,-1.36002 -0.06634,-0.6966 -0.06634,-1.3932 0,-0.76294 0.132686,-1.69174 0.132685,-0.9288 0.72977,-1.45954 0.132686,-0.0995 0.298543,-0.0663 0.165857,0 0.298545,-0.0995 0.89563,0 1.79125,-0.0663 0.89563,-0.0663 1.75809,-0.0663 0.49757,0 0.96197,0.0663 0.4644,0.0332 0.82928,0.19902 0.36489,0.16586 0.59709,0.49758 0.26537,0.33171 0.33171,0.86245 v 0.59709 q 0,0.36488 0,0.66342 0,0.29855 -0.0663,0.66343 0,0.13269 -0.0332,0.56392 0,0.39805 0,0.53074 0,0.59708 0.0332,1.22734 0.0663,0.59709 0.0663,1.22734 0,0.26537 -0.0995,0.56392 -0.0995,0.26537 -0.39806,0.26537 -0.39806,0 -0.72977,-0.0332 -0.29854,-0.0663 -0.72977,-0.0332 -0.0332,0 -0.0995,-0.0332 -0.0663,-0.0663 -0.0663,-0.0995 v -0.89563 q -0.16586,0 -0.2322,0.16586 l -0.4644,0.9288 -0.0332,0.0332 h -0.26537 q -0.2322,0 -0.43123,-0.0332 -0.19903,-0.0332 -0.39805,-0.0332 -0.13269,0 -0.2322,0.0663 -0.0995,0.0332 -0.19903,0.0332 -0.16586,-0.13269 -0.39806,-0.33171 -0.2322,-0.19903 -0.4644,-0.19903 0,0 -0.0663,0 -0.0332,0 -0.0663,0.0663 v 0.13269 q 0,0.26537 0.16585,0.43122 0.19903,0.13269 0.26537,0.36489 v 0.2322 q 0,0.53074 -0.0663,1.06148 -0.0663,0.53075 -0.0663,1.09466 0,0.63026 0.0663,1.26051 0.0995,0.59709 0.0995,1.22734 0,0.66343 -0.59708,1.161 l -1.393199,1.06149 v 0.0332 q -0.199028,0 -0.331714,-0.16586 -0.132685,-0.19903 -0.331714,-0.19903 -0.2322,0 -0.563914,0.33172 -0.331713,0.33171 -0.331713,0.59708 v 0.0332 q 0.199028,-0.16585 0.364885,-0.39805 0.199028,-0.26537 0.497571,-0.26537 0.199028,0 0.2322,0.13268 0.06634,0.0995 0.09951,0.26537 0.03317,0.13269 0.06634,0.26537 0.03317,0.0995 0.199029,0.0995 0.2322,0 0.464399,-0.26537 0.232204,-0.26537 0.464404,-0.56392 0.26537,-0.29854 0.53074,-0.56391 0.26537,-0.26537 0.59708,-0.26537 0.16586,0 0.2322,0.2322 0.0995,0.2322 0.0995,0.53074 0.0332,0.29854 0,0.59709 0,0.26537 0,0.33171 0,0.49757 -0.26537,0.9288 -0.2322,0.43123 -0.26538,0.96197 -0.0332,0.0663 -0.43122,0.29854 -0.36489,0.19903 -0.796117,0.49757 -0.431228,0.29855 -0.796113,0.63026 -0.331714,0.33171 -0.331714,0.63026 v 0.0332 q 0.597085,-0.26537 1.227344,-0.89563 0.66343,-0.66343 1.02831,-1.02831 h 0.0332 q 0.36489,0 0.56392,0.2322 0.19902,0.2322 0.19902,0.53074 0,0.19903 -0.16585,0.4644 -0.16586,0.26537 -0.39806,0.56391 -0.19903,0.29854 -0.36488,0.63026 -0.16586,0.33171 -0.16586,0.72977 0.0995,0 0.16586,-0.16586 0.0995,-0.16586 0.16585,-0.2322 l 0.79612,-1.69174 q 0.16585,-0.2322 0.2322,-0.4644 0.0663,-0.26537 0.39805,-0.33171 0.49757,0 0.96197,-0.0332 0.49757,-0.0332 0.99514,-0.0332 h 0.4644 q 0.56392,0.13269 0.9288,0.56392 0.39806,0.39805 0.39806,1.02831 0,0.59709 -0.2322,1.12783 -0.2322,0.49757 -0.2322,1.06148 0,0.26537 0.0332,0.43123 l 0.4644,1.65857 v 0.36489 q 0,0.82928 -0.36488,1.3932 -0.33172,0.56391 -1.22735,0.72977 -0.36488,0.0332 -0.92879,0.0663 -0.53075,0.0332 -0.99515,0.0332 -0.0332,0 -0.16585,0 -0.0995,0 -0.26537,0 -0.13269,-0.0332 -0.26538,-0.0663 -0.0995,-0.0332 -0.0995,-0.0995 v -0.36488 q 0,-0.0663 -0.0995,-0.0995 -0.0995,-0.0332 -0.16586,-0.0332 -0.39806,0 -0.76294,0.29854 -0.33172,0.29855 -0.6966,0.29855 h -1.161002 q -0.364885,0 -0.663427,-0.2322 -0.265372,-0.2322 -0.597085,-0.2322 -0.2322,0 -0.364886,0.19903 -0.132685,0.16585 -0.331714,0.16585 l -3.018597,0.13269 H 93.95072 q -0.165857,0.0332 -0.663428,0.0332 -0.4644,0 -0.597085,0 -0.398057,0 -0.597086,-0.16586 -0.199028,-0.16585 -0.298542,-0.33171 -0.06634,-0.19903 -0.09951,-0.36489 -0.03317,-0.16585 -0.132686,-0.16585 z m 12.406101,-8.16017 q 0,-0.0995 0,-0.19902 0.0332,-0.0995 0.0332,-0.26538 0,-0.39805 -0.0663,-0.79611 -0.0663,-0.43123 -0.33171,-0.66343 l -0.0663,-0.0332 q 0.0332,0 0.0332,0.0332 0,0 0.0332,0 l -0.13269,-0.0995 q 0.19903,-0.39806 0.19903,-0.82929 0,-0.29854 -0.0332,-0.59708 -0.0332,-0.33172 -0.0663,-0.66343 -0.0332,-0.29854 -0.0663,-0.59708 0,-0.33172 0,-0.63026 0,-0.2322 0,-0.49757 0.0332,-0.26537 0.0663,-0.53074 0.0332,-0.26538 0.0332,-0.53075 0.0332,-0.29854 0.0332,-0.59708 v -0.13269 q 0.26537,0 0.4644,-0.0995 0.0663,0 0.16585,0.0332 0.0995,0 0.19903,0 0.16586,0.0332 0.43123,0.0332 h 0.49757 l 0.26537,-0.26537 0.0332,-0.0663 q 0.29855,0.2322 0.36489,0.2322 h 0.26537 q 0.0995,0 0.19903,0 0.0995,0 0.26537,0.0332 0.16586,0.0332 0.33171,0.0332 0.16586,0 0.39806,0 0.66343,0 0.86246,-0.4644 0.19902,-0.49757 0.19902,-0.9288 0,-0.36488 -0.0332,-0.66343 0,-0.33171 -0.0332,-0.63025 -0.0332,-0.29855 -0.0332,-0.56392 0,-0.29854 0,-0.59708 v -0.53074 q 0,-0.16586 0,-0.26538 0.0332,-0.13268 0.0332,-0.23219 0.0663,-0.36489 0.0663,-0.66343 0,-0.33172 0,-0.72977 v -0.66343 q -0.13268,-0.89563 -0.63025,-1.3932 l -1.19417,-1.19417 q -0.43123,-0.86246 -1.26052,-1.06148 -0.82928,-0.2322 -1.85759,-0.2322 -0.43123,0 -0.89563,0.0332 -0.43123,0 -0.89563,0.0332 -0.4644,0.0332 -0.99514,0.0663 -0.49757,0 -0.961971,0 l -0.06634,0.0663 q -0.03317,0.0332 -0.06634,0.0332 0,0 0,0 -0.165857,0 -0.364886,0.0332 -0.165857,0.0332 -0.331714,0.19903 l -0.199028,0.19902 q -0.497571,-0.4644 -1.160999,-0.56391 -0.364885,-0.0332 -0.995142,-0.0332 -0.630256,-0.0332 -1.127827,-0.0332 -0.06634,0 -0.165857,0.0332 -0.06634,0 -0.132686,0 h -1.061484 q -0.03317,0 -0.06634,0 0,-0.0332 -0.03317,-0.0332 -0.4644,0 -0.663428,0.26537 -0.165857,-0.0995 -0.331714,-0.16586 -0.165857,-0.0663 -0.431228,-0.0663 -0.563914,0 -0.928799,0.13268 -0.364886,0.13269 -0.597086,0.29855 -0.265371,-0.26537 -0.696599,-0.4644 -0.165857,-0.0663 -0.563914,-0.0663 -0.364885,0 -0.431228,0 h -0.165857 q -1.260513,0 -1.824426,0.79612 -0.530743,0.79611 -0.530743,1.89077 v 0.29854 q 0,0.0663 0,0.16586 0.03317,0.0663 0.03317,0.13268 v 1.161 q 0.132685,0.19903 0.165857,0.26537 -0.2322,0.43123 -0.2322,1.09466 0,0.19903 0,0.43123 0,0.19902 0.03317,0.33171 h 0.03317 v 0.96197 q 0,0.56391 0.165857,1.02831 0.165857,0.4644 0.72977,0.72977 l 1.293685,1.29369 q 0.265371,0.26537 0.696599,0.36488 l -0.03317,-0.0332 q 0.165857,0.0663 0.265371,0.0663 0.132685,0 0.199028,0 0.696599,0 1.061485,-0.19903 0.09951,0.13268 0.398057,0.2322 l -0.2322,3.74836 v 0.99515 q 0,0.76294 0,1.49271 0.03317,0.6966 0.132685,1.3932 -0.132685,-0.0332 -0.364885,-0.0332 -0.331714,0 -0.729771,0.0663 -0.398056,0.0663 -0.762942,0.29854 -0.165857,-0.2322 -0.497571,-0.39805 h -0.298542 q -0.630257,0 -1.028313,0.19902 -0.364886,0.19903 -0.597086,0.56392 -0.199028,0.33171 -0.298542,0.76294 -0.06634,0.43123 -0.09951,0.9288 v 2.25565 q -0.03317,0.16586 -0.03317,0.43123 0,0.36489 0.03317,0.66343 0.03317,0.29854 0.165857,0.56391 h -0.03317 l -0.232199,0.2322 v 0.49757 q 0,1.75809 1.260513,2.38834 l 1.19417,1.19417 q 0.663428,0.66343 1.724912,0.66343 0.4644,0 0.762942,0 0.331714,0 0.895628,-0.0663 0.298543,-0.0663 0.530742,-0.26537 0.364886,0.36488 1.094656,0.36488 0.06634,0 0.2322,0 0.199028,0 0.431228,0 0.2322,0 0.431228,-0.0332 0.199029,0 0.265371,0 h 0.132686 l 3.018597,-0.13268 h 0.03317 q 0.398057,-0.0332 0.6966,-0.33172 v -0.0332 l 0.298542,0.16586 -0.03317,-0.0332 q 0.497572,0.33171 0.961972,0.33171 h 1.161 q 0.33171,0 0.56391,-0.13269 0.2322,-0.13268 0.49757,-0.29854 0,-0.0332 0,-0.0332 0.0332,0 0.0332,-0.0332 l 0.2322,0.2322 q 0.26537,0.26537 0.6966,0.29854 0.43123,0.0332 0.49757,0.0332 0.36489,0 0.79612,-0.0332 0.4644,0 0.82928,-0.0332 0.0663,0 0.19903,-0.0332 0.13269,0 0.19903,0 1.161,-0.16586 1.59222,-0.89563 0.4644,-0.72977 0.4644,-1.79125 v -0.39806 l -0.49757,-1.72491 h 0.0332 q -0.0332,-0.16586 -0.0332,-0.33172 0,-0.43123 0.16586,-0.86245 h 0.0332 q 0.26537,-0.6966 0.26537,-1.32686 0,-0.4644 -0.19903,-0.82928 -0.16585,-0.39806 -0.43122,-0.6966 l -1.161,-1.161 q -0.49757,-0.96197 -1.59223,-1.22734 h -0.63026 q -0.13268,0 -0.26537,0.0332 -0.13268,0 -0.26537,0 h -0.0332 z m -10.71436,11.04608 q -0.09951,-0.0332 -0.132685,-0.13269 z" />
      <path
         id="path867"
         style="font-style:normal;font-variant:normal;font-weight:normal;font-stretch:normal;font-family:JFRockOutcrop;-inkscape-font-specification:JFRockOutcrop;fill:#404040;stroke-width:0.26458329px"
         d="m 115.27474,293.15211 q -0.0663,0 -0.0995,0.13268 0,0.13269 -0.0663,0.29854 -0.0332,0.13269 -0.13269,0.29855 -0.0663,0.16585 -0.26537,0.19903 -0.56391,0.0663 -0.86245,0.0663 -0.26538,0 -0.72977,0 -0.86246,0 -1.36003,-0.56392 -0.49757,-0.56391 -0.49757,-1.45954 v -0.2322 q 0.0995,-0.0995 0.13268,-0.0995 0.16586,0 0.26537,0.16586 0.0995,0.16585 0.26537,0.16585 0.16586,0 0.16586,-0.16585 v -0.0332 q -0.43123,-0.36489 -0.59708,-0.76295 -0.16586,-0.43123 -0.16586,-0.99514 0,-0.26537 0.0332,-0.39806 v -2.28882 q 0.0332,-0.6966 0.26537,-1.22734 0.26537,-0.56392 1.09466,-0.56392 h 0.19903 q 0.0663,0.0332 0.0663,0.16586 0.0332,0.13269 0.0332,0.29854 0.0332,0.13269 0.0663,0.26537 0.0332,0.0995 0.13269,0.0995 h 0.0332 q 0.19903,-0.49757 0.72977,-0.63026 0.56392,-0.16586 1.02831,-0.16586 0.43123,0 0.86246,0.2322 0.4644,0.19903 0.4644,0.6966 0,0.36489 -0.13269,0.66343 -0.13268,0.29854 -0.33171,0.59709 -0.16586,0.29854 -0.29854,0.63025 -0.13269,0.29855 -0.13269,0.63026 h 0.0663 q 0.16585,0 0.33171,-0.33171 0.19903,-0.36489 0.36488,-0.79612 0.19903,-0.4644 0.39806,-0.86245 0.19903,-0.43123 0.39806,-0.59709 h 0.0332 l 0.0663,0.0663 q 0,0.26537 0,0.59709 0.0332,0.33171 0.16586,0.59708 0,0.0332 0.0663,0.16586 0.0995,0.0995 0.19903,0.26537 0.0995,0.13269 0.16586,0.26537 0.0663,0.0995 0.0663,0.13269 v 1.09465 q 0,0 0.0995,0.29855 0.0995,0.26537 0.16586,0.43123 0.0332,0.0332 0.0332,0.0663 0,0 0.0332,0.0332 0.0663,-0.56391 0.0663,-0.89563 0.0332,-0.36488 0.0332,-0.82928 v -0.29855 q -0.0663,-0.19902 -0.19903,-0.33171 -0.13269,-0.13269 -0.26537,-0.26537 -0.13269,-0.13269 -0.2322,-0.26537 -0.0995,-0.13269 -0.0995,-0.39806 0,-0.26537 0.0995,-0.49757 0.13268,-0.26537 0.13268,-0.53074 0,-0.0663 -0.0332,-0.0995 -0.33171,-0.0332 -0.49757,-0.16585 -0.13268,-0.13269 -0.26537,-0.26537 -0.0995,-0.13269 -0.26537,-0.26538 -0.13269,-0.13268 -0.43123,-0.19902 -0.0663,0 -0.0663,-0.0995 -0.13269,-0.76294 -0.16586,-1.49271 0,-0.72977 0,-1.49271 v -0.99515 l 0.29854,-4.71033 q 0.0332,-0.4644 0.19903,-0.76295 0.19903,-0.33171 0.4644,-0.66342 l 0.0332,-0.0332 q 0,-0.0995 -0.13268,-0.0995 -0.0995,-0.0332 -0.16586,-0.0332 -0.36488,0 -0.6966,0.2322 -0.33171,0.2322 -0.72977,0.2322 -0.86245,0 -1.12783,-0.0663 -0.26537,-0.0995 -0.29854,-0.2322 -0.0332,-0.13269 0,-0.2322 0.0332,-0.13269 -0.16586,-0.19903 l -0.0332,-0.0332 q -0.0995,0 -0.13268,0.0995 0,0.0995 -0.0995,0.19903 -0.0663,0.0995 -0.29854,0.19903 -0.19903,0.0995 -0.66343,0.0995 -0.0332,0 -0.16585,0 -0.0995,0 -0.13269,-0.0332 -0.33171,-0.0663 -0.49757,-0.26537 -0.13269,-0.2322 -0.19903,-0.49757 -0.0332,-0.29854 -0.0332,-0.59709 0.0332,-0.29854 0.0332,-0.56391 0,-0.2322 -0.0332,-0.56391 -0.0332,-0.33172 0,-0.66343 0.0332,-0.33172 0.16586,-0.56392 0.16585,-0.23219 0.53074,-0.23219 0.19903,0 0.33171,0.19902 0.13269,0.16586 0.2322,0.36489 0.0995,0.19903 0.19903,0.39806 0.0995,0.16585 0.26537,0.16585 0.0663,0 0.0663,-0.0995 v -0.0332 q 0,0 0,-0.0332 0,-0.0663 -0.0332,-0.0663 -0.0663,-0.13268 -0.26537,-0.49757 -0.16585,-0.36488 -0.2322,-0.4644 -0.0995,-0.16585 -0.2322,-0.29854 -0.0995,-0.13269 -0.26537,-0.13269 -0.13268,0 -0.26537,0.0332 -0.0995,0.0332 -0.26537,0.0332 -0.13269,0 -0.19903,-0.0995 0.0332,-0.39805 0,-0.79611 -0.0332,-0.39806 -0.0332,-0.76294 0,-0.82929 0.39806,-1.42637 0.39805,-0.59709 1.29368,-0.59709 h 0.16586 q 0.0663,0 0.39805,0 0.33172,0 0.39806,0.0332 0.39806,0.16586 0.49757,0.43123 0.0995,0.26537 0.19903,0.63026 0,0.0663 0.0663,0.0663 0.0995,0 0.13269,-0.16586 0.0663,-0.16585 0.16586,-0.36488 0.13268,-0.19903 0.43122,-0.36489 0.29855,-0.16585 0.9288,-0.16585 0.43123,0 0.56392,0.26537 0.16585,0.26537 0.39805,0.26537 0.0995,0 0.13269,-0.0663 0.0332,-0.0995 0.0332,-0.19903 0.0332,-0.13269 0.0663,-0.19903 0.0663,-0.0995 0.2322,-0.0995 0.0995,0 0.19903,0.0332 0.0995,0 0.19903,0 0.26537,0 0.53074,0 0.26537,-0.0332 0.53074,-0.0332 0.49758,0 1.09466,0.0332 0.63026,0 0.99514,0.0332 0.43123,0.0663 0.79612,0.43123 0.36488,0.33171 0.36488,0.79611 0,0.16586 -0.0332,0.2322 l -0.72977,1.32685 q -0.0663,0.13269 -0.2322,0.26538 -0.16586,0.13268 -0.33171,0.13268 l -0.9288,0.0663 q -0.16586,0.0332 -0.26537,0.16586 -0.0663,0.0995 -0.13269,0.2322 l -1.26051,3.11811 h 0.0663 q 0.0332,-0.0332 0.16586,-0.26537 0.13268,-0.2322 0.33171,-0.59708 0.2322,-0.36489 0.36489,-0.59709 0.0332,-0.0663 0.13268,-0.2322 0.0995,-0.19903 0.19903,-0.39806 0.0995,-0.19902 0.19903,-0.39805 0.0995,-0.19903 0.13268,-0.26537 0.16586,-0.29855 0.4644,-0.39806 0.33172,-0.0995 0.63026,-0.0995 0.72977,0 0.72977,0.89562 v 1.92394 q 0,0.26538 0.0663,0.63026 0.0663,0.36489 0.19903,0.63026 0.0995,-0.36489 0.13269,-0.72977 0.0332,-0.39806 0.0332,-0.76295 0,-0.6966 -0.0663,-1.36002 -0.0663,-0.6966 -0.0663,-1.3932 0,-0.76294 0.13269,-1.69174 0.13268,-0.9288 0.72977,-1.45954 0.13268,-0.0995 0.29854,-0.0663 0.16586,0 0.29854,-0.0995 0.89563,0 1.79126,-0.0663 0.89563,-0.0663 1.75808,-0.0663 0.49757,0 0.96197,0.0663 0.4644,0.0332 0.82929,0.19902 0.36488,0.16586 0.59708,0.49758 0.26537,0.33171 0.33172,0.86245 v 0.59709 q 0,0.36488 0,0.66342 0,0.29855 -0.0663,0.66343 0,0.13269 -0.0332,0.56392 0,0.39805 0,0.53074 0,0.59708 0.0332,1.22734 0.0663,0.59709 0.0663,1.22734 0,0.26537 -0.0995,0.56392 -0.0995,0.26537 -0.39805,0.26537 -0.39806,0 -0.72977,-0.0332 -0.29855,-0.0663 -0.72977,-0.0332 -0.0332,0 -0.0995,-0.0332 -0.0663,-0.0663 -0.0663,-0.0995 v -0.89563 q -0.16586,0 -0.2322,0.16586 l -0.4644,0.9288 -0.0332,0.0332 h -0.26537 q -0.2322,0 -0.43123,-0.0332 -0.19903,-0.0332 -0.39806,-0.0332 -0.13268,0 -0.2322,0.0663 -0.0995,0.0332 -0.19903,0.0332 -0.16585,-0.13269 -0.39805,-0.33171 -0.2322,-0.19903 -0.4644,-0.19903 0,0 -0.0663,0 -0.0332,0 -0.0663,0.0663 v 0.13269 q 0,0.26537 0.16586,0.43122 0.19903,0.13269 0.26537,0.36489 v 0.2322 q 0,0.53074 -0.0663,1.06148 -0.0663,0.53075 -0.0663,1.09466 0,0.63026 0.0663,1.26051 0.0995,0.59709 0.0995,1.22734 0,0.66343 -0.59708,1.161 l -1.3932,1.06149 v 0.0332 q -0.19903,0 -0.33172,-0.16586 -0.13268,-0.19903 -0.33171,-0.19903 -0.2322,0 -0.56391,0.33172 -0.33172,0.33171 -0.33172,0.59708 v 0.0332 q 0.19903,-0.16585 0.36489,-0.39805 0.19903,-0.26537 0.49757,-0.26537 0.19903,0 0.2322,0.13268 0.0663,0.0995 0.0995,0.26537 0.0332,0.13269 0.0663,0.26537 0.0332,0.0995 0.19902,0.0995 0.2322,0 0.4644,-0.26537 0.2322,-0.26537 0.4644,-0.56392 0.26537,-0.29854 0.53074,-0.56391 0.26538,-0.26537 0.59709,-0.26537 0.16586,0 0.2322,0.2322 0.0995,0.2322 0.0995,0.53074 0.0332,0.29854 0,0.59709 0,0.26537 0,0.33171 0,0.49757 -0.26537,0.9288 -0.2322,0.43123 -0.26537,0.96197 -0.0332,0.0663 -0.43123,0.29854 -0.36488,0.19903 -0.79611,0.49757 -0.43123,0.29855 -0.79611,0.63026 -0.33172,0.33171 -0.33172,0.63026 v 0.0332 q 0.59709,-0.26537 1.22734,-0.89563 0.66343,-0.66343 1.02832,-1.02831 h 0.0332 q 0.36488,0 0.56391,0.2322 0.19903,0.2322 0.19903,0.53074 0,0.19903 -0.16586,0.4644 -0.16585,0.26537 -0.39805,0.56391 -0.19903,0.29854 -0.36489,0.63026 -0.16586,0.33171 -0.16586,0.72977 0.0995,0 0.16586,-0.16586 0.0995,-0.16586 0.16586,-0.2322 l 0.79611,-1.69174 q 0.16586,-0.2322 0.2322,-0.4644 0.0663,-0.26537 0.39806,-0.33171 0.49757,0 0.96197,-0.0332 0.49757,-0.0332 0.99514,-0.0332 h 0.4644 q 0.56391,0.13269 0.9288,0.56392 0.39806,0.39805 0.39806,1.02831 0,0.59709 -0.2322,1.12783 -0.2322,0.49757 -0.2322,1.06148 0,0.26537 0.0332,0.43123 l 0.4644,1.65857 v 0.36489 q 0,0.82928 -0.36489,1.3932 -0.33171,0.56391 -1.22734,0.72977 -0.36488,0.0332 -0.9288,0.0663 -0.53074,0.0332 -0.99514,0.0332 -0.0332,0 -0.16586,0 -0.0995,0 -0.26537,0 -0.13268,-0.0332 -0.26537,-0.0663 -0.0995,-0.0332 -0.0995,-0.0995 v -0.36488 q 0,-0.0663 -0.0995,-0.0995 -0.0995,-0.0332 -0.16585,-0.0332 -0.39806,0 -0.76295,0.29854 -0.33171,0.29855 -0.6966,0.29855 h -1.16099 q -0.36489,0 -0.66343,-0.2322 -0.26537,-0.2322 -0.59709,-0.2322 -0.2322,0 -0.36488,0.19903 -0.13269,0.16585 -0.33172,0.16585 l -3.01859,0.13269 h -0.2322 q -0.16586,0.0332 -0.66343,0.0332 -0.4644,0 -0.59709,0 -0.39805,0 -0.59708,-0.16586 -0.19903,-0.16585 -0.29854,-0.33171 -0.0663,-0.19903 -0.0995,-0.36489 -0.0332,-0.16585 -0.13268,-0.16585 z m 12.4061,-8.16017 q 0,-0.0995 0,-0.19902 0.0332,-0.0995 0.0332,-0.26538 0,-0.39805 -0.0663,-0.79611 -0.0663,-0.43123 -0.33172,-0.66343 l -0.0663,-0.0332 q 0.0332,0 0.0332,0.0332 0,0 0.0332,0 l -0.13268,-0.0995 q 0.19902,-0.39806 0.19902,-0.82929 0,-0.29854 -0.0332,-0.59708 -0.0332,-0.33172 -0.0663,-0.66343 -0.0332,-0.29854 -0.0663,-0.59708 0,-0.33172 0,-0.63026 0,-0.2322 0,-0.49757 0.0332,-0.26537 0.0663,-0.53074 0.0332,-0.26538 0.0332,-0.53075 0.0332,-0.29854 0.0332,-0.59708 v -0.13269 q 0.26537,0 0.4644,-0.0995 0.0663,0 0.16586,0.0332 0.0995,0 0.19903,0 0.16586,0.0332 0.43123,0.0332 h 0.49757 l 0.26537,-0.26537 0.0332,-0.0663 q 0.29854,0.2322 0.36489,0.2322 h 0.26537 q 0.0995,0 0.19902,0 0.0995,0 0.26538,0.0332 0.16585,0.0332 0.33171,0.0332 0.16586,0 0.39806,0 0.66342,0 0.86245,-0.4644 0.19903,-0.49757 0.19903,-0.9288 0,-0.36488 -0.0332,-0.66343 0,-0.33171 -0.0332,-0.63025 -0.0332,-0.29855 -0.0332,-0.56392 0,-0.29854 0,-0.59708 v -0.53074 q 0,-0.16586 0,-0.26538 0.0332,-0.13268 0.0332,-0.23219 0.0663,-0.36489 0.0663,-0.66343 0,-0.33172 0,-0.72977 v -0.66343 q -0.13268,-0.89563 -0.63026,-1.3932 l -1.19417,-1.19417 q -0.43122,-0.86246 -1.26051,-1.06148 -0.82928,-0.2322 -1.8576,-0.2322 -0.43122,0 -0.89562,0.0332 -0.43123,0 -0.89563,0.0332 -0.4644,0.0332 -0.99514,0.0663 -0.49757,0 -0.96197,0 l -0.0663,0.0663 q -0.0332,0.0332 -0.0663,0.0332 0,0 0,0 -0.16586,0 -0.36489,0.0332 -0.16585,0.0332 -0.33171,0.19903 l -0.19903,0.19902 q -0.49757,-0.4644 -1.161,-0.56391 -0.36488,-0.0332 -0.99514,-0.0332 -0.63025,-0.0332 -1.12783,-0.0332 -0.0663,0 -0.16585,0.0332 -0.0663,0 -0.13269,0 h -1.06148 q -0.0332,0 -0.0663,0 0,-0.0332 -0.0332,-0.0332 -0.4644,0 -0.66342,0.26537 -0.16586,-0.0995 -0.33172,-0.16586 -0.16586,-0.0663 -0.43123,-0.0663 -0.56391,0 -0.9288,0.13268 -0.36488,0.13269 -0.59708,0.29855 -0.26537,-0.26537 -0.6966,-0.4644 -0.16586,-0.0663 -0.56391,-0.0663 -0.36489,0 -0.43123,0 h -0.16586 q -1.26051,0 -1.82443,0.79612 -0.53074,0.79611 -0.53074,1.89077 v 0.29854 q 0,0.0663 0,0.16586 0.0332,0.0663 0.0332,0.13268 v 1.161 q 0.13269,0.19903 0.16586,0.26537 -0.2322,0.43123 -0.2322,1.09466 0,0.19903 0,0.43123 0,0.19902 0.0332,0.33171 h 0.0332 v 0.96197 q 0,0.56391 0.16586,1.02831 0.16586,0.4644 0.72977,0.72977 l 1.29369,1.29369 q 0.26537,0.26537 0.69659,0.36488 l -0.0332,-0.0332 q 0.16586,0.0663 0.26537,0.0663 0.13269,0 0.19903,0 0.6966,0 1.06149,-0.19903 0.0995,0.13268 0.39805,0.2322 l -0.2322,3.74836 v 0.99515 q 0,0.76294 0,1.49271 0.0332,0.6966 0.13269,1.3932 -0.13269,-0.0332 -0.36489,-0.0332 -0.33171,0 -0.72977,0.0663 -0.39805,0.0663 -0.76294,0.29854 -0.16586,-0.2322 -0.49757,-0.39805 h -0.29854 q -0.63026,0 -1.02831,0.19902 -0.36489,0.19903 -0.59709,0.56392 -0.19903,0.33171 -0.29854,0.76294 -0.0663,0.43123 -0.0995,0.9288 v 2.25565 q -0.0332,0.16586 -0.0332,0.43123 0,0.36489 0.0332,0.66343 0.0332,0.29854 0.16586,0.56391 h -0.0332 l -0.2322,0.2322 v 0.49757 q 0,1.75809 1.26051,2.38834 l 1.19417,1.19417 q 0.66343,0.66343 1.72491,0.66343 0.4644,0 0.76295,0 0.33171,0 0.89562,-0.0663 0.29855,-0.0663 0.53075,-0.26537 0.36488,0.36488 1.09465,0.36488 0.0663,0 0.2322,0 0.19903,0 0.43123,0 0.2322,0 0.43123,-0.0332 0.19903,0 0.26537,0 h 0.13269 l 3.01859,-0.13268 h 0.0332 q 0.39806,-0.0332 0.6966,-0.33172 v -0.0332 l 0.29855,0.16586 -0.0332,-0.0332 q 0.49758,0.33171 0.96197,0.33171 h 1.161 q 0.33172,0 0.56392,-0.13269 0.2322,-0.13268 0.49757,-0.29854 0,-0.0332 0,-0.0332 0.0332,0 0.0332,-0.0332 l 0.2322,0.2322 q 0.26537,0.26537 0.6966,0.29854 0.43123,0.0332 0.49757,0.0332 0.36488,0 0.79611,-0.0332 0.4644,0 0.82929,-0.0332 0.0663,0 0.19903,-0.0332 0.13268,0 0.19902,0 1.161,-0.16586 1.59223,-0.89563 0.4644,-0.72977 0.4644,-1.79125 v -0.39806 l -0.49757,-1.72491 h 0.0332 q -0.0332,-0.16586 -0.0332,-0.33172 0,-0.43123 0.16586,-0.86245 h 0.0332 q 0.26537,-0.6966 0.26537,-1.32686 0,-0.4644 -0.19903,-0.82928 -0.16586,-0.39806 -0.43123,-0.6966 l -1.161,-1.161 q -0.49757,-0.96197 -1.59222,-1.22734 h -0.63026 q -0.13268,0 -0.26537,0.0332 -0.13269,0 -0.26537,0 h -0.0332 z m -10.71436,11.04608 q -0.0995,-0.0332 -0.13269,-0.13269 z" />
    </g>
  </g>
</svg>
